ISO-10303-21;
HEADER;
FILE_DESCRIPTION(('FreeCAD Model'),'2;1');
FILE_NAME('Open CASCADE Shape Model','2026-03-21T20:15:18',(''),(''),
  'Open CASCADE STEP processor 7.8','FreeCAD','Unknown');
FILE_SCHEMA(('AUTOMOTIVE_DESIGN { 1 0 10303 214 1 1 1 1 }'));
ENDSEC;
DATA;
#1 = APPLICATION_PROTOCOL_DEFINITION('international standard',
  'automotive_design',2000,#2);
#2 = APPLICATION_CONTEXT(
  'core data for automotive mechanical design processes');
#3 = SHAPE_DEFINITION_REPRESENTATION(#4,#10);
#4 = PRODUCT_DEFINITION_SHAPE('','',#5);
#5 = PRODUCT_DEFINITION('design','',#6,#9);
#6 = PRODUCT_DEFINITION_FORMATION('','',#7);
#7 = PRODUCT('Shell','Shell','',(#8));
#8 = PRODUCT_CONTEXT('',#2,'mechanical');
#9 = PRODUCT_DEFINITION_CONTEXT('part definition',#2,'design');
#10 = ADVANCED_BREP_SHAPE_REPRESENTATION('',(#11,#15),#1474);
#11 = AXIS2_PLACEMENT_3D('',#12,#13,#14);
#12 = CARTESIAN_POINT('',(0.,0.,0.));
#13 = DIRECTION('',(0.,0.,1.));
#14 = DIRECTION('',(1.,0.,-0.));
#15 = MANIFOLD_SOLID_BREP('',#16);
#16 = CLOSED_SHELL('',(#17,#93,#125,#149,#173,#191,#222,#246,#304,#355,
    #387,#411,#435,#453,#499,#536,#560,#639,#690,#721,#745,#769,#786,
    #817,#841,#865,#882,#938,#963,#988,#1013,#1038,#1063,#1085,#1102,
    #1119,#1131,#1158,#1183,#1208,#1233,#1258,#1278,#1298,#1318,#1338,
    #1363,#1388,#1413,#1438,#1447,#1456,#1465));
#17 = ADVANCED_FACE('',(#18,#54),#88,.F.);
#18 = FACE_BOUND('',#19,.F.);
#19 = EDGE_LOOP('',(#20,#31,#39,#48));
#20 = ORIENTED_EDGE('',*,*,#21,.T.);
#21 = EDGE_CURVE('',#22,#24,#26,.T.);
#22 = VERTEX_POINT('',#23);
#23 = CARTESIAN_POINT('',(-2.5,19.570000209808,13.860000223793));
#24 = VERTEX_POINT('',#25);
#25 = CARTESIAN_POINT('',(-2.5,19.570000209808,6.700000075473));
#26 = CIRCLE('',#27,3.58000007416);
#27 = AXIS2_PLACEMENT_3D('',#28,#29,#30);
#28 = CARTESIAN_POINT('',(-2.5,19.570000209808,10.280000149633));
#29 = DIRECTION('',(-1.,0.,0.));
#30 = DIRECTION('',(0.,0.,1.));
#31 = ORIENTED_EDGE('',*,*,#32,.T.);
#32 = EDGE_CURVE('',#24,#33,#35,.T.);
#33 = VERTEX_POINT('',#34);
#34 = CARTESIAN_POINT('',(-2.5,10.629999790192,6.700000075473));
#35 = LINE('',#36,#37);
#36 = CARTESIAN_POINT('',(-2.5,19.570000209808,6.700000075473));
#37 = VECTOR('',#38,1.);
#38 = DIRECTION('',(0.,-1.,9.934881185814E-17));
#39 = ORIENTED_EDGE('',*,*,#40,.T.);
#40 = EDGE_CURVE('',#33,#41,#43,.T.);
#41 = VERTEX_POINT('',#42);
#42 = CARTESIAN_POINT('',(-2.5,10.629999790192,13.860000223793));
#43 = CIRCLE('',#44,3.58000007416);
#44 = AXIS2_PLACEMENT_3D('',#45,#46,#47);
#45 = CARTESIAN_POINT('',(-2.5,10.629999790192,10.280000149633));
#46 = DIRECTION('',(-1.,-0.,-0.));
#47 = DIRECTION('',(0.,0.,-1.));
#48 = ORIENTED_EDGE('',*,*,#49,.T.);
#49 = EDGE_CURVE('',#41,#22,#50,.T.);
#50 = LINE('',#51,#52);
#51 = CARTESIAN_POINT('',(-2.5,10.629999790192,13.860000223793));
#52 = VECTOR('',#53,1.);
#53 = DIRECTION('',(0.,1.,0.));
#54 = FACE_BOUND('',#55,.F.);
#55 = EDGE_LOOP('',(#56,#66,#74,#82));
#56 = ORIENTED_EDGE('',*,*,#57,.T.);
#57 = EDGE_CURVE('',#58,#60,#62,.T.);
#58 = VERTEX_POINT('',#59);
#59 = CARTESIAN_POINT('',(-2.5,32.5,0.));
#60 = VERTEX_POINT('',#61);
#61 = CARTESIAN_POINT('',(-2.5,32.5,26.4));
#62 = LINE('',#63,#64);
#63 = CARTESIAN_POINT('',(-2.5,32.5,0.));
#64 = VECTOR('',#65,1.);
#65 = DIRECTION('',(0.,0.,1.));
#66 = ORIENTED_EDGE('',*,*,#67,.T.);
#67 = EDGE_CURVE('',#60,#68,#70,.T.);
#68 = VERTEX_POINT('',#69);
#69 = CARTESIAN_POINT('',(-2.5,-2.5,26.4));
#70 = LINE('',#71,#72);
#71 = CARTESIAN_POINT('',(-2.5,32.5,26.4));
#72 = VECTOR('',#73,1.);
#73 = DIRECTION('',(0.,-1.,0.));
#74 = ORIENTED_EDGE('',*,*,#75,.F.);
#75 = EDGE_CURVE('',#76,#68,#78,.T.);
#76 = VERTEX_POINT('',#77);
#77 = CARTESIAN_POINT('',(-2.5,-2.5,0.));
#78 = LINE('',#79,#80);
#79 = CARTESIAN_POINT('',(-2.5,-2.5,0.));
#80 = VECTOR('',#81,1.);
#81 = DIRECTION('',(0.,0.,1.));
#82 = ORIENTED_EDGE('',*,*,#83,.F.);
#83 = EDGE_CURVE('',#58,#76,#84,.T.);
#84 = LINE('',#85,#86);
#85 = CARTESIAN_POINT('',(-2.5,32.5,0.));
#86 = VECTOR('',#87,1.);
#87 = DIRECTION('',(0.,-1.,0.));
#88 = PLANE('',#89);
#89 = AXIS2_PLACEMENT_3D('',#90,#91,#92);
#90 = CARTESIAN_POINT('',(-2.5,32.5,0.));
#91 = DIRECTION('',(1.,0.,0.));
#92 = DIRECTION('',(0.,-1.,0.));
#93 = ADVANCED_FACE('',(#94),#120,.F.);
#94 = FACE_BOUND('',#95,.T.);
#95 = EDGE_LOOP('',(#96,#104,#105,#113));
#96 = ORIENTED_EDGE('',*,*,#97,.F.);
#97 = EDGE_CURVE('',#22,#98,#100,.T.);
#98 = VERTEX_POINT('',#99);
#99 = CARTESIAN_POINT('',(-1.5,19.570000209808,12.860000223793));
#100 = LINE('',#101,#102);
#101 = CARTESIAN_POINT('',(-1.5,19.570000209808,12.860000223793));
#102 = VECTOR('',#103,1.);
#103 = DIRECTION('',(0.707106781187,-4.710277376051E-16,-0.707106781187)
  );
#104 = ORIENTED_EDGE('',*,*,#21,.T.);
#105 = ORIENTED_EDGE('',*,*,#106,.T.);
#106 = EDGE_CURVE('',#24,#107,#109,.T.);
#107 = VERTEX_POINT('',#108);
#108 = CARTESIAN_POINT('',(-1.5,19.570000209808,7.700000075473));
#109 = LINE('',#110,#111);
#110 = CARTESIAN_POINT('',(-1.5,19.570000209808,7.700000075473));
#111 = VECTOR('',#112,1.);
#112 = DIRECTION('',(0.707106781187,-8.659560562355E-17,0.707106781187)
  );
#113 = ORIENTED_EDGE('',*,*,#114,.F.);
#114 = EDGE_CURVE('',#98,#107,#115,.T.);
#115 = CIRCLE('',#116,2.58000007416);
#116 = AXIS2_PLACEMENT_3D('',#117,#118,#119);
#117 = CARTESIAN_POINT('',(-1.5,19.570000209808,10.280000149633));
#118 = DIRECTION('',(-1.,0.,0.));
#119 = DIRECTION('',(0.,0.,1.));
#120 = CONICAL_SURFACE('',#121,2.58000007416,0.785398163397);
#121 = AXIS2_PLACEMENT_3D('',#122,#123,#124);
#122 = CARTESIAN_POINT('',(-1.5,19.570000209808,10.280000149633));
#123 = DIRECTION('',(-1.,-0.,-0.));
#124 = DIRECTION('',(0.,0.,1.));
#125 = ADVANCED_FACE('',(#126),#144,.F.);
#126 = FACE_BOUND('',#127,.T.);
#127 = EDGE_LOOP('',(#128,#136,#137,#138));
#128 = ORIENTED_EDGE('',*,*,#129,.F.);
#129 = EDGE_CURVE('',#41,#130,#132,.T.);
#130 = VERTEX_POINT('',#131);
#131 = CARTESIAN_POINT('',(-1.5,10.629999790192,12.860000223793));
#132 = LINE('',#133,#134);
#133 = CARTESIAN_POINT('',(-1.5,10.629999790192,12.860000223793));
#134 = VECTOR('',#135,1.);
#135 = DIRECTION('',(0.707106781187,8.659560562355E-17,-0.707106781187)
  );
#136 = ORIENTED_EDGE('',*,*,#49,.T.);
#137 = ORIENTED_EDGE('',*,*,#97,.T.);
#138 = ORIENTED_EDGE('',*,*,#139,.F.);
#139 = EDGE_CURVE('',#130,#98,#140,.T.);
#140 = LINE('',#141,#142);
#141 = CARTESIAN_POINT('',(-1.5,10.629999790192,12.860000223793));
#142 = VECTOR('',#143,1.);
#143 = DIRECTION('',(0.,1.,0.));
#144 = PLANE('',#145);
#145 = AXIS2_PLACEMENT_3D('',#146,#147,#148);
#146 = CARTESIAN_POINT('',(-2.,10.629999790192,13.360000223793));
#147 = DIRECTION('',(0.707106781187,0.,0.707106781187));
#148 = DIRECTION('',(-0.,-1.,-0.));
#149 = ADVANCED_FACE('',(#150),#168,.T.);
#150 = FACE_BOUND('',#151,.T.);
#151 = EDGE_LOOP('',(#152,#153,#154,#162));
#152 = ORIENTED_EDGE('',*,*,#106,.F.);
#153 = ORIENTED_EDGE('',*,*,#32,.T.);
#154 = ORIENTED_EDGE('',*,*,#155,.T.);
#155 = EDGE_CURVE('',#33,#156,#158,.T.);
#156 = VERTEX_POINT('',#157);
#157 = CARTESIAN_POINT('',(-1.5,10.629999790192,7.700000075473));
#158 = LINE('',#159,#160);
#159 = CARTESIAN_POINT('',(-2.,10.629999790192,7.200000075473));
#160 = VECTOR('',#161,1.);
#161 = DIRECTION('',(0.707106781187,7.025021856772E-17,0.707106781187));
#162 = ORIENTED_EDGE('',*,*,#163,.F.);
#163 = EDGE_CURVE('',#107,#156,#164,.T.);
#164 = LINE('',#165,#166);
#165 = CARTESIAN_POINT('',(-1.5,19.570000209808,7.700000075473));
#166 = VECTOR('',#167,1.);
#167 = DIRECTION('',(0.,-1.,9.934881185814E-17));
#168 = PLANE('',#169);
#169 = AXIS2_PLACEMENT_3D('',#170,#171,#172);
#170 = CARTESIAN_POINT('',(-2.,19.570000209808,7.200000075473));
#171 = DIRECTION('',(-0.707106781187,7.007939324928E-17,0.707106781187)
  );
#172 = DIRECTION('',(1.207917410643E-19,-1.,9.922802011708E-17));
#173 = ADVANCED_FACE('',(#174),#186,.F.);
#174 = FACE_BOUND('',#175,.T.);
#175 = EDGE_LOOP('',(#176,#177,#178,#179));
#176 = ORIENTED_EDGE('',*,*,#155,.F.);
#177 = ORIENTED_EDGE('',*,*,#40,.T.);
#178 = ORIENTED_EDGE('',*,*,#129,.T.);
#179 = ORIENTED_EDGE('',*,*,#180,.F.);
#180 = EDGE_CURVE('',#156,#130,#181,.T.);
#181 = CIRCLE('',#182,2.58000007416);
#182 = AXIS2_PLACEMENT_3D('',#183,#184,#185);
#183 = CARTESIAN_POINT('',(-1.5,10.629999790192,10.280000149633));
#184 = DIRECTION('',(-1.,-0.,-0.));
#185 = DIRECTION('',(0.,0.,-1.));
#186 = CONICAL_SURFACE('',#187,2.58000007416,0.785398163397);
#187 = AXIS2_PLACEMENT_3D('',#188,#189,#190);
#188 = CARTESIAN_POINT('',(-1.5,10.629999790192,10.280000149633));
#189 = DIRECTION('',(-1.,-0.,-0.));
#190 = DIRECTION('',(0.,0.,-1.));
#191 = ADVANCED_FACE('',(#192),#217,.T.);
#192 = FACE_BOUND('',#193,.T.);
#193 = EDGE_LOOP('',(#194,#195,#203,#211));
#194 = ORIENTED_EDGE('',*,*,#57,.T.);
#195 = ORIENTED_EDGE('',*,*,#196,.F.);
#196 = EDGE_CURVE('',#197,#60,#199,.T.);
#197 = VERTEX_POINT('',#198);
#198 = CARTESIAN_POINT('',(91.5,32.5,26.4));
#199 = LINE('',#200,#201);
#200 = CARTESIAN_POINT('',(89.5,32.5,26.4));
#201 = VECTOR('',#202,1.);
#202 = DIRECTION('',(-1.,0.,0.));
#203 = ORIENTED_EDGE('',*,*,#204,.F.);
#204 = EDGE_CURVE('',#205,#197,#207,.T.);
#205 = VERTEX_POINT('',#206);
#206 = CARTESIAN_POINT('',(91.5,32.5,0.));
#207 = LINE('',#208,#209);
#208 = CARTESIAN_POINT('',(91.5,32.5,0.));
#209 = VECTOR('',#210,1.);
#210 = DIRECTION('',(0.,0.,1.));
#211 = ORIENTED_EDGE('',*,*,#212,.F.);
#212 = EDGE_CURVE('',#58,#205,#213,.T.);
#213 = LINE('',#214,#215);
#214 = CARTESIAN_POINT('',(89.5,32.5,0.));
#215 = VECTOR('',#216,1.);
#216 = DIRECTION('',(1.,0.,0.));
#217 = PLANE('',#218);
#218 = AXIS2_PLACEMENT_3D('',#219,#220,#221);
#219 = CARTESIAN_POINT('',(44.5,32.5,13.2));
#220 = DIRECTION('',(0.,1.,0.));
#221 = DIRECTION('',(0.,0.,1.));
#222 = ADVANCED_FACE('',(#223),#241,.T.);
#223 = FACE_BOUND('',#224,.T.);
#224 = EDGE_LOOP('',(#225,#226,#227,#235));
#225 = ORIENTED_EDGE('',*,*,#83,.F.);
#226 = ORIENTED_EDGE('',*,*,#212,.T.);
#227 = ORIENTED_EDGE('',*,*,#228,.F.);
#228 = EDGE_CURVE('',#229,#205,#231,.T.);
#229 = VERTEX_POINT('',#230);
#230 = CARTESIAN_POINT('',(91.5,-2.5,0.));
#231 = LINE('',#232,#233);
#232 = CARTESIAN_POINT('',(91.5,-2.5,0.));
#233 = VECTOR('',#234,1.);
#234 = DIRECTION('',(0.,1.,0.));
#235 = ORIENTED_EDGE('',*,*,#236,.F.);
#236 = EDGE_CURVE('',#76,#229,#237,.T.);
#237 = LINE('',#238,#239);
#238 = CARTESIAN_POINT('',(89.5,-2.5,0.));
#239 = VECTOR('',#240,1.);
#240 = DIRECTION('',(1.,0.,0.));
#241 = PLANE('',#242);
#242 = AXIS2_PLACEMENT_3D('',#243,#244,#245);
#243 = CARTESIAN_POINT('',(44.5,15.,0.));
#244 = DIRECTION('',(-0.,-0.,-1.));
#245 = DIRECTION('',(-1.,0.,0.));
#246 = ADVANCED_FACE('',(#247,#265),#299,.T.);
#247 = FACE_BOUND('',#248,.T.);
#248 = EDGE_LOOP('',(#249,#250,#258,#264));
#249 = ORIENTED_EDGE('',*,*,#67,.T.);
#250 = ORIENTED_EDGE('',*,*,#251,.T.);
#251 = EDGE_CURVE('',#68,#252,#254,.T.);
#252 = VERTEX_POINT('',#253);
#253 = CARTESIAN_POINT('',(91.5,-2.5,26.4));
#254 = LINE('',#255,#256);
#255 = CARTESIAN_POINT('',(-2.5,-2.5,26.4));
#256 = VECTOR('',#257,1.);
#257 = DIRECTION('',(1.,0.,0.));
#258 = ORIENTED_EDGE('',*,*,#259,.T.);
#259 = EDGE_CURVE('',#252,#197,#260,.T.);
#260 = LINE('',#261,#262);
#261 = CARTESIAN_POINT('',(91.5,-2.5,26.4));
#262 = VECTOR('',#263,1.);
#263 = DIRECTION('',(0.,1.,0.));
#264 = ORIENTED_EDGE('',*,*,#196,.T.);
#265 = FACE_BOUND('',#266,.T.);
#266 = EDGE_LOOP('',(#267,#277,#285,#293));
#267 = ORIENTED_EDGE('',*,*,#268,.F.);
#268 = EDGE_CURVE('',#269,#271,#273,.T.);
#269 = VERTEX_POINT('',#270);
#270 = CARTESIAN_POINT('',(-0.5,30.5,26.4));
#271 = VERTEX_POINT('',#272);
#272 = CARTESIAN_POINT('',(-0.5,-0.5,26.4));
#273 = LINE('',#274,#275);
#274 = CARTESIAN_POINT('',(-0.5,32.5,26.4));
#275 = VECTOR('',#276,1.);
#276 = DIRECTION('',(0.,-1.,0.));
#277 = ORIENTED_EDGE('',*,*,#278,.F.);
#278 = EDGE_CURVE('',#279,#269,#281,.T.);
#279 = VERTEX_POINT('',#280);
#280 = CARTESIAN_POINT('',(87.5,30.5,26.4));
#281 = LINE('',#282,#283);
#282 = CARTESIAN_POINT('',(89.5,30.5,26.4));
#283 = VECTOR('',#284,1.);
#284 = DIRECTION('',(-1.,0.,0.));
#285 = ORIENTED_EDGE('',*,*,#286,.F.);
#286 = EDGE_CURVE('',#287,#279,#289,.T.);
#287 = VERTEX_POINT('',#288);
#288 = CARTESIAN_POINT('',(87.5,-0.5,26.4));
#289 = LINE('',#290,#291);
#290 = CARTESIAN_POINT('',(87.5,-2.5,26.4));
#291 = VECTOR('',#292,1.);
#292 = DIRECTION('',(0.,1.,0.));
#293 = ORIENTED_EDGE('',*,*,#294,.F.);
#294 = EDGE_CURVE('',#271,#287,#295,.T.);
#295 = LINE('',#296,#297);
#296 = CARTESIAN_POINT('',(-2.5,-0.5,26.4));
#297 = VECTOR('',#298,1.);
#298 = DIRECTION('',(1.,0.,0.));
#299 = PLANE('',#300);
#300 = AXIS2_PLACEMENT_3D('',#301,#302,#303);
#301 = CARTESIAN_POINT('',(44.5,15.,26.4));
#302 = DIRECTION('',(0.,0.,1.));
#303 = DIRECTION('',(1.,0.,0.));
#304 = ADVANCED_FACE('',(#305,#339),#350,.T.);
#305 = FACE_BOUND('',#306,.T.);
#306 = EDGE_LOOP('',(#307,#317,#325,#333));
#307 = ORIENTED_EDGE('',*,*,#308,.F.);
#308 = EDGE_CURVE('',#309,#311,#313,.T.);
#309 = VERTEX_POINT('',#310);
#310 = CARTESIAN_POINT('',(15.5,-2.5,0.7));
#311 = VERTEX_POINT('',#312);
#312 = CARTESIAN_POINT('',(34.5,-2.5,0.7));
#313 = LINE('',#314,#315);
#314 = CARTESIAN_POINT('',(17.5,-2.5,0.7));
#315 = VECTOR('',#316,1.);
#316 = DIRECTION('',(1.,0.,0.));
#317 = ORIENTED_EDGE('',*,*,#318,.F.);
#318 = EDGE_CURVE('',#319,#309,#321,.T.);
#319 = VERTEX_POINT('',#320);
#320 = CARTESIAN_POINT('',(15.5,-2.5,7.3));
#321 = LINE('',#322,#323);
#322 = CARTESIAN_POINT('',(15.5,-2.5,5.3));
#323 = VECTOR('',#324,1.);
#324 = DIRECTION('',(0.,-2.22044604925E-16,-1.));
#325 = ORIENTED_EDGE('',*,*,#326,.F.);
#326 = EDGE_CURVE('',#327,#319,#329,.T.);
#327 = VERTEX_POINT('',#328);
#328 = CARTESIAN_POINT('',(34.5,-2.5,7.3));
#329 = LINE('',#330,#331);
#330 = CARTESIAN_POINT('',(32.5,-2.5,7.3));
#331 = VECTOR('',#332,1.);
#332 = DIRECTION('',(-1.,0.,0.));
#333 = ORIENTED_EDGE('',*,*,#334,.F.);
#334 = EDGE_CURVE('',#311,#327,#335,.T.);
#335 = LINE('',#336,#337);
#336 = CARTESIAN_POINT('',(34.5,-2.5,2.7));
#337 = VECTOR('',#338,1.);
#338 = DIRECTION('',(0.,2.22044604925E-16,1.));
#339 = FACE_BOUND('',#340,.T.);
#340 = EDGE_LOOP('',(#341,#342,#343,#349));
#341 = ORIENTED_EDGE('',*,*,#75,.F.);
#342 = ORIENTED_EDGE('',*,*,#236,.T.);
#343 = ORIENTED_EDGE('',*,*,#344,.T.);
#344 = EDGE_CURVE('',#229,#252,#345,.T.);
#345 = LINE('',#346,#347);
#346 = CARTESIAN_POINT('',(91.5,-2.5,0.));
#347 = VECTOR('',#348,1.);
#348 = DIRECTION('',(0.,0.,1.));
#349 = ORIENTED_EDGE('',*,*,#251,.F.);
#350 = PLANE('',#351);
#351 = AXIS2_PLACEMENT_3D('',#352,#353,#354);
#352 = CARTESIAN_POINT('',(44.5,-2.5,13.2));
#353 = DIRECTION('',(-0.,-1.,-0.));
#354 = DIRECTION('',(0.,0.,-1.));
#355 = ADVANCED_FACE('',(#356),#382,.F.);
#356 = FACE_BOUND('',#357,.F.);
#357 = EDGE_LOOP('',(#358,#366,#367,#375));
#358 = ORIENTED_EDGE('',*,*,#359,.F.);
#359 = EDGE_CURVE('',#107,#360,#362,.T.);
#360 = VERTEX_POINT('',#361);
#361 = CARTESIAN_POINT('',(-0.5,19.570000209808,7.700000075473));
#362 = LINE('',#363,#364);
#363 = CARTESIAN_POINT('',(-2.5,19.570000209808,7.700000075473));
#364 = VECTOR('',#365,1.);
#365 = DIRECTION('',(1.,0.,0.));
#366 = ORIENTED_EDGE('',*,*,#114,.F.);
#367 = ORIENTED_EDGE('',*,*,#368,.T.);
#368 = EDGE_CURVE('',#98,#369,#371,.T.);
#369 = VERTEX_POINT('',#370);
#370 = CARTESIAN_POINT('',(-0.5,19.570000209808,12.860000223793));
#371 = LINE('',#372,#373);
#372 = CARTESIAN_POINT('',(-2.5,19.570000209808,12.860000223793));
#373 = VECTOR('',#374,1.);
#374 = DIRECTION('',(1.,0.,0.));
#375 = ORIENTED_EDGE('',*,*,#376,.T.);
#376 = EDGE_CURVE('',#369,#360,#377,.T.);
#377 = CIRCLE('',#378,2.58000007416);
#378 = AXIS2_PLACEMENT_3D('',#379,#380,#381);
#379 = CARTESIAN_POINT('',(-0.5,19.570000209808,10.280000149633));
#380 = DIRECTION('',(-1.,0.,0.));
#381 = DIRECTION('',(0.,-1.,0.));
#382 = CYLINDRICAL_SURFACE('',#383,2.58000007416);
#383 = AXIS2_PLACEMENT_3D('',#384,#385,#386);
#384 = CARTESIAN_POINT('',(-2.5,19.570000209808,10.280000149633));
#385 = DIRECTION('',(-1.,0.,0.));
#386 = DIRECTION('',(0.,-1.,0.));
#387 = ADVANCED_FACE('',(#388),#406,.T.);
#388 = FACE_BOUND('',#389,.T.);
#389 = EDGE_LOOP('',(#390,#398,#399,#400));
#390 = ORIENTED_EDGE('',*,*,#391,.F.);
#391 = EDGE_CURVE('',#130,#392,#394,.T.);
#392 = VERTEX_POINT('',#393);
#393 = CARTESIAN_POINT('',(-0.5,10.629999790192,12.860000223793));
#394 = LINE('',#395,#396);
#395 = CARTESIAN_POINT('',(-2.5,10.629999790192,12.860000223793));
#396 = VECTOR('',#397,1.);
#397 = DIRECTION('',(1.,0.,0.));
#398 = ORIENTED_EDGE('',*,*,#139,.T.);
#399 = ORIENTED_EDGE('',*,*,#368,.T.);
#400 = ORIENTED_EDGE('',*,*,#401,.T.);
#401 = EDGE_CURVE('',#369,#392,#402,.T.);
#402 = LINE('',#403,#404);
#403 = CARTESIAN_POINT('',(-0.5,26.035000104904,12.860000223793));
#404 = VECTOR('',#405,1.);
#405 = DIRECTION('',(0.,-1.,0.));
#406 = PLANE('',#407);
#407 = AXIS2_PLACEMENT_3D('',#408,#409,#410);
#408 = CARTESIAN_POINT('',(-2.5,19.570000209808,12.860000223793));
#409 = DIRECTION('',(0.,0.,-1.));
#410 = DIRECTION('',(0.,-1.,0.));
#411 = ADVANCED_FACE('',(#412),#430,.F.);
#412 = FACE_BOUND('',#413,.F.);
#413 = EDGE_LOOP('',(#414,#422,#423,#424));
#414 = ORIENTED_EDGE('',*,*,#415,.F.);
#415 = EDGE_CURVE('',#156,#416,#418,.T.);
#416 = VERTEX_POINT('',#417);
#417 = CARTESIAN_POINT('',(-0.5,10.629999790192,7.700000075473));
#418 = LINE('',#419,#420);
#419 = CARTESIAN_POINT('',(-2.5,10.629999790192,7.700000075473));
#420 = VECTOR('',#421,1.);
#421 = DIRECTION('',(1.,0.,0.));
#422 = ORIENTED_EDGE('',*,*,#163,.F.);
#423 = ORIENTED_EDGE('',*,*,#359,.T.);
#424 = ORIENTED_EDGE('',*,*,#425,.T.);
#425 = EDGE_CURVE('',#360,#416,#426,.T.);
#426 = LINE('',#427,#428);
#427 = CARTESIAN_POINT('',(-0.5,26.035000104904,7.700000075473));
#428 = VECTOR('',#429,1.);
#429 = DIRECTION('',(0.,-1.,9.934881185814E-17));
#430 = PLANE('',#431);
#431 = AXIS2_PLACEMENT_3D('',#432,#433,#434);
#432 = CARTESIAN_POINT('',(-2.5,19.570000209808,7.700000075473));
#433 = DIRECTION('',(0.,-9.934881185814E-17,-1.));
#434 = DIRECTION('',(0.,-1.,9.934881185814E-17));
#435 = ADVANCED_FACE('',(#436),#448,.F.);
#436 = FACE_BOUND('',#437,.F.);
#437 = EDGE_LOOP('',(#438,#439,#440,#441));
#438 = ORIENTED_EDGE('',*,*,#391,.F.);
#439 = ORIENTED_EDGE('',*,*,#180,.F.);
#440 = ORIENTED_EDGE('',*,*,#415,.T.);
#441 = ORIENTED_EDGE('',*,*,#442,.T.);
#442 = EDGE_CURVE('',#416,#392,#443,.T.);
#443 = CIRCLE('',#444,2.58000007416);
#444 = AXIS2_PLACEMENT_3D('',#445,#446,#447);
#445 = CARTESIAN_POINT('',(-0.5,10.629999790192,10.280000149633));
#446 = DIRECTION('',(-1.,0.,0.));
#447 = DIRECTION('',(0.,-1.,0.));
#448 = CYLINDRICAL_SURFACE('',#449,2.58000007416);
#449 = AXIS2_PLACEMENT_3D('',#450,#451,#452);
#450 = CARTESIAN_POINT('',(-2.5,10.629999790192,10.280000149633));
#451 = DIRECTION('',(-1.,0.,0.));
#452 = DIRECTION('',(0.,-1.,0.));
#453 = ADVANCED_FACE('',(#454,#460),#494,.T.);
#454 = FACE_BOUND('',#455,.F.);
#455 = EDGE_LOOP('',(#456,#457,#458,#459));
#456 = ORIENTED_EDGE('',*,*,#259,.T.);
#457 = ORIENTED_EDGE('',*,*,#204,.F.);
#458 = ORIENTED_EDGE('',*,*,#228,.F.);
#459 = ORIENTED_EDGE('',*,*,#344,.T.);
#460 = FACE_BOUND('',#461,.F.);
#461 = EDGE_LOOP('',(#462,#472,#480,#488));
#462 = ORIENTED_EDGE('',*,*,#463,.T.);
#463 = EDGE_CURVE('',#464,#466,#468,.T.);
#464 = VERTEX_POINT('',#465);
#465 = CARTESIAN_POINT('',(91.5,4.7,2.9));
#466 = VERTEX_POINT('',#467);
#467 = CARTESIAN_POINT('',(91.5,25.3,2.9));
#468 = LINE('',#469,#470);
#469 = CARTESIAN_POINT('',(91.5,4.7,2.9));
#470 = VECTOR('',#471,1.);
#471 = DIRECTION('',(0.,1.,0.));
#472 = ORIENTED_EDGE('',*,*,#473,.T.);
#473 = EDGE_CURVE('',#466,#474,#476,.T.);
#474 = VERTEX_POINT('',#475);
#475 = CARTESIAN_POINT('',(91.5,25.3,23.5));
#476 = LINE('',#477,#478);
#477 = CARTESIAN_POINT('',(91.5,25.3,2.9));
#478 = VECTOR('',#479,1.);
#479 = DIRECTION('',(0.,0.,1.));
#480 = ORIENTED_EDGE('',*,*,#481,.T.);
#481 = EDGE_CURVE('',#474,#482,#484,.T.);
#482 = VERTEX_POINT('',#483);
#483 = CARTESIAN_POINT('',(91.5,4.7,23.5));
#484 = LINE('',#485,#486);
#485 = CARTESIAN_POINT('',(91.5,25.3,23.5));
#486 = VECTOR('',#487,1.);
#487 = DIRECTION('',(0.,-1.,0.));
#488 = ORIENTED_EDGE('',*,*,#489,.T.);
#489 = EDGE_CURVE('',#482,#464,#490,.T.);
#490 = LINE('',#491,#492);
#491 = CARTESIAN_POINT('',(91.5,4.7,23.5));
#492 = VECTOR('',#493,1.);
#493 = DIRECTION('',(0.,0.,-1.));
#494 = PLANE('',#495);
#495 = AXIS2_PLACEMENT_3D('',#496,#497,#498);
#496 = CARTESIAN_POINT('',(91.5,15.,13.2));
#497 = DIRECTION('',(1.,0.,0.));
#498 = DIRECTION('',(0.,0.,1.));
#499 = ADVANCED_FACE('',(#500,#525),#531,.T.);
#500 = FACE_BOUND('',#501,.T.);
#501 = EDGE_LOOP('',(#502,#503,#511,#519));
#502 = ORIENTED_EDGE('',*,*,#268,.T.);
#503 = ORIENTED_EDGE('',*,*,#504,.F.);
#504 = EDGE_CURVE('',#505,#271,#507,.T.);
#505 = VERTEX_POINT('',#506);
#506 = CARTESIAN_POINT('',(-0.5,-0.5,2.));
#507 = LINE('',#508,#509);
#508 = CARTESIAN_POINT('',(-0.5,-0.5,0.));
#509 = VECTOR('',#510,1.);
#510 = DIRECTION('',(0.,0.,1.));
#511 = ORIENTED_EDGE('',*,*,#512,.F.);
#512 = EDGE_CURVE('',#513,#505,#515,.T.);
#513 = VERTEX_POINT('',#514);
#514 = CARTESIAN_POINT('',(-0.5,30.5,2.));
#515 = LINE('',#516,#517);
#516 = CARTESIAN_POINT('',(-0.5,23.75,2.));
#517 = VECTOR('',#518,1.);
#518 = DIRECTION('',(0.,-1.,0.));
#519 = ORIENTED_EDGE('',*,*,#520,.F.);
#520 = EDGE_CURVE('',#269,#513,#521,.T.);
#521 = LINE('',#522,#523);
#522 = CARTESIAN_POINT('',(-0.5,30.5,0.));
#523 = VECTOR('',#524,1.);
#524 = DIRECTION('',(0.,0.,-1.));
#525 = FACE_BOUND('',#526,.T.);
#526 = EDGE_LOOP('',(#527,#528,#529,#530));
#527 = ORIENTED_EDGE('',*,*,#401,.F.);
#528 = ORIENTED_EDGE('',*,*,#376,.T.);
#529 = ORIENTED_EDGE('',*,*,#425,.T.);
#530 = ORIENTED_EDGE('',*,*,#442,.T.);
#531 = PLANE('',#532);
#532 = AXIS2_PLACEMENT_3D('',#533,#534,#535);
#533 = CARTESIAN_POINT('',(-0.5,32.5,0.));
#534 = DIRECTION('',(1.,0.,0.));
#535 = DIRECTION('',(0.,-1.,0.));
#536 = ADVANCED_FACE('',(#537),#555,.T.);
#537 = FACE_BOUND('',#538,.T.);
#538 = EDGE_LOOP('',(#539,#540,#541,#549));
#539 = ORIENTED_EDGE('',*,*,#278,.T.);
#540 = ORIENTED_EDGE('',*,*,#520,.T.);
#541 = ORIENTED_EDGE('',*,*,#542,.F.);
#542 = EDGE_CURVE('',#543,#513,#545,.T.);
#543 = VERTEX_POINT('',#544);
#544 = CARTESIAN_POINT('',(87.5,30.5,2.));
#545 = LINE('',#546,#547);
#546 = CARTESIAN_POINT('',(66.5,30.5,2.));
#547 = VECTOR('',#548,1.);
#548 = DIRECTION('',(-1.,0.,0.));
#549 = ORIENTED_EDGE('',*,*,#550,.T.);
#550 = EDGE_CURVE('',#543,#279,#551,.T.);
#551 = LINE('',#552,#553);
#552 = CARTESIAN_POINT('',(87.5,30.5,0.));
#553 = VECTOR('',#554,1.);
#554 = DIRECTION('',(0.,0.,1.));
#555 = PLANE('',#556);
#556 = AXIS2_PLACEMENT_3D('',#557,#558,#559);
#557 = CARTESIAN_POINT('',(89.5,30.5,0.));
#558 = DIRECTION('',(0.,-1.,0.));
#559 = DIRECTION('',(-1.,0.,0.));
#560 = ADVANCED_FACE('',(#561,#579,#590,#601,#612,#623),#634,.T.);
#561 = FACE_BOUND('',#562,.T.);
#562 = EDGE_LOOP('',(#563,#564,#565,#573));
#563 = ORIENTED_EDGE('',*,*,#286,.T.);
#564 = ORIENTED_EDGE('',*,*,#550,.F.);
#565 = ORIENTED_EDGE('',*,*,#566,.F.);
#566 = EDGE_CURVE('',#567,#543,#569,.T.);
#567 = VERTEX_POINT('',#568);
#568 = CARTESIAN_POINT('',(87.5,-0.5,2.));
#569 = LINE('',#570,#571);
#570 = CARTESIAN_POINT('',(87.5,6.25,2.));
#571 = VECTOR('',#572,1.);
#572 = DIRECTION('',(0.,1.,0.));
#573 = ORIENTED_EDGE('',*,*,#574,.T.);
#574 = EDGE_CURVE('',#567,#287,#575,.T.);
#575 = LINE('',#576,#577);
#576 = CARTESIAN_POINT('',(87.5,-0.5,0.));
#577 = VECTOR('',#578,1.);
#578 = DIRECTION('',(0.,0.,1.));
#579 = FACE_BOUND('',#580,.T.);
#580 = EDGE_LOOP('',(#581));
#581 = ORIENTED_EDGE('',*,*,#582,.T.);
#582 = EDGE_CURVE('',#583,#583,#585,.T.);
#583 = VERTEX_POINT('',#584);
#584 = CARTESIAN_POINT('',(87.5,9.,20.45));
#585 = CIRCLE('',#586,1.25);
#586 = AXIS2_PLACEMENT_3D('',#587,#588,#589);
#587 = CARTESIAN_POINT('',(87.5,7.75,20.45));
#588 = DIRECTION('',(1.,0.,0.));
#589 = DIRECTION('',(0.,1.,0.));
#590 = FACE_BOUND('',#591,.T.);
#591 = EDGE_LOOP('',(#592));
#592 = ORIENTED_EDGE('',*,*,#593,.T.);
#593 = EDGE_CURVE('',#594,#594,#596,.T.);
#594 = VERTEX_POINT('',#595);
#595 = CARTESIAN_POINT('',(87.5,23.5,20.45));
#596 = CIRCLE('',#597,1.25);
#597 = AXIS2_PLACEMENT_3D('',#598,#599,#600);
#598 = CARTESIAN_POINT('',(87.5,22.25,20.45));
#599 = DIRECTION('',(1.,0.,0.));
#600 = DIRECTION('',(0.,1.,0.));
#601 = FACE_BOUND('',#602,.T.);
#602 = EDGE_LOOP('',(#603));
#603 = ORIENTED_EDGE('',*,*,#604,.T.);
#604 = EDGE_CURVE('',#605,#605,#607,.T.);
#605 = VERTEX_POINT('',#606);
#606 = CARTESIAN_POINT('',(87.5,9.,5.95));
#607 = CIRCLE('',#608,1.25);
#608 = AXIS2_PLACEMENT_3D('',#609,#610,#611);
#609 = CARTESIAN_POINT('',(87.5,7.75,5.95));
#610 = DIRECTION('',(1.,0.,0.));
#611 = DIRECTION('',(0.,1.,0.));
#612 = FACE_BOUND('',#613,.T.);
#613 = EDGE_LOOP('',(#614));
#614 = ORIENTED_EDGE('',*,*,#615,.T.);
#615 = EDGE_CURVE('',#616,#616,#618,.T.);
#616 = VERTEX_POINT('',#617);
#617 = CARTESIAN_POINT('',(87.5,21.75,13.2));
#618 = CIRCLE('',#619,6.75);
#619 = AXIS2_PLACEMENT_3D('',#620,#621,#622);
#620 = CARTESIAN_POINT('',(87.5,15.,13.2));
#621 = DIRECTION('',(1.,0.,0.));
#622 = DIRECTION('',(0.,1.,0.));
#623 = FACE_BOUND('',#624,.T.);
#624 = EDGE_LOOP('',(#625));
#625 = ORIENTED_EDGE('',*,*,#626,.T.);
#626 = EDGE_CURVE('',#627,#627,#629,.T.);
#627 = VERTEX_POINT('',#628);
#628 = CARTESIAN_POINT('',(87.5,23.5,5.95));
#629 = CIRCLE('',#630,1.25);
#630 = AXIS2_PLACEMENT_3D('',#631,#632,#633);
#631 = CARTESIAN_POINT('',(87.5,22.25,5.95));
#632 = DIRECTION('',(1.,0.,0.));
#633 = DIRECTION('',(0.,1.,0.));
#634 = PLANE('',#635);
#635 = AXIS2_PLACEMENT_3D('',#636,#637,#638);
#636 = CARTESIAN_POINT('',(87.5,-2.5,0.));
#637 = DIRECTION('',(-1.,0.,0.));
#638 = DIRECTION('',(0.,1.,0.));
#639 = ADVANCED_FACE('',(#640,#651),#685,.T.);
#640 = FACE_BOUND('',#641,.T.);
#641 = EDGE_LOOP('',(#642,#643,#644,#650));
#642 = ORIENTED_EDGE('',*,*,#294,.T.);
#643 = ORIENTED_EDGE('',*,*,#574,.F.);
#644 = ORIENTED_EDGE('',*,*,#645,.F.);
#645 = EDGE_CURVE('',#505,#567,#646,.T.);
#646 = LINE('',#647,#648);
#647 = CARTESIAN_POINT('',(20.5,-0.5,2.));
#648 = VECTOR('',#649,1.);
#649 = DIRECTION('',(1.,0.,0.));
#650 = ORIENTED_EDGE('',*,*,#504,.T.);
#651 = FACE_BOUND('',#652,.T.);
#652 = EDGE_LOOP('',(#653,#663,#671,#679));
#653 = ORIENTED_EDGE('',*,*,#654,.T.);
#654 = EDGE_CURVE('',#655,#657,#659,.T.);
#655 = VERTEX_POINT('',#656);
#656 = CARTESIAN_POINT('',(17.5,-0.5,5.3));
#657 = VERTEX_POINT('',#658);
#658 = CARTESIAN_POINT('',(17.5,-0.5,2.7));
#659 = LINE('',#660,#661);
#660 = CARTESIAN_POINT('',(17.5,-0.5,2.65));
#661 = VECTOR('',#662,1.);
#662 = DIRECTION('',(0.,0.,-1.));
#663 = ORIENTED_EDGE('',*,*,#664,.T.);
#664 = EDGE_CURVE('',#657,#665,#667,.T.);
#665 = VERTEX_POINT('',#666);
#666 = CARTESIAN_POINT('',(32.5,-0.5,2.7));
#667 = LINE('',#668,#669);
#668 = CARTESIAN_POINT('',(7.5,-0.5,2.7));
#669 = VECTOR('',#670,1.);
#670 = DIRECTION('',(1.,0.,0.));
#671 = ORIENTED_EDGE('',*,*,#672,.T.);
#672 = EDGE_CURVE('',#665,#673,#675,.T.);
#673 = VERTEX_POINT('',#674);
#674 = CARTESIAN_POINT('',(32.5,-0.5,5.3));
#675 = LINE('',#676,#677);
#676 = CARTESIAN_POINT('',(32.5,-0.5,1.35));
#677 = VECTOR('',#678,1.);
#678 = DIRECTION('',(0.,0.,1.));
#679 = ORIENTED_EDGE('',*,*,#680,.T.);
#680 = EDGE_CURVE('',#673,#655,#681,.T.);
#681 = LINE('',#682,#683);
#682 = CARTESIAN_POINT('',(15.,-0.5,5.3));
#683 = VECTOR('',#684,1.);
#684 = DIRECTION('',(-1.,0.,0.));
#685 = PLANE('',#686);
#686 = AXIS2_PLACEMENT_3D('',#687,#688,#689);
#687 = CARTESIAN_POINT('',(-2.5,-0.5,0.));
#688 = DIRECTION('',(0.,1.,0.));
#689 = DIRECTION('',(1.,0.,0.));
#690 = ADVANCED_FACE('',(#691),#716,.F.);
#691 = FACE_BOUND('',#692,.T.);
#692 = EDGE_LOOP('',(#693,#701,#702,#710));
#693 = ORIENTED_EDGE('',*,*,#694,.F.);
#694 = EDGE_CURVE('',#309,#695,#697,.T.);
#695 = VERTEX_POINT('',#696);
#696 = CARTESIAN_POINT('',(17.5,-1.345299461621,2.7));
#697 = LINE('',#698,#699);
#698 = CARTESIAN_POINT('',(17.485714285714,-1.353547322609,
    2.685714285714));
#699 = VECTOR('',#700,1.);
#700 = DIRECTION('',(0.654653670708,0.377964473009,0.654653670708));
#701 = ORIENTED_EDGE('',*,*,#308,.T.);
#702 = ORIENTED_EDGE('',*,*,#703,.T.);
#703 = EDGE_CURVE('',#311,#704,#706,.T.);
#704 = VERTEX_POINT('',#705);
#705 = CARTESIAN_POINT('',(32.5,-1.345299461621,2.7));
#706 = LINE('',#707,#708);
#707 = CARTESIAN_POINT('',(29.857142857143,0.180554821238,5.342857142857
    ));
#708 = VECTOR('',#709,1.);
#709 = DIRECTION('',(-0.654653670708,0.377964473009,0.654653670708));
#710 = ORIENTED_EDGE('',*,*,#711,.F.);
#711 = EDGE_CURVE('',#695,#704,#712,.T.);
#712 = LINE('',#713,#714);
#713 = CARTESIAN_POINT('',(17.5,-1.345299461621,2.7));
#714 = VECTOR('',#715,1.);
#715 = DIRECTION('',(1.,0.,0.));
#716 = PLANE('',#717);
#717 = AXIS2_PLACEMENT_3D('',#718,#719,#720);
#718 = CARTESIAN_POINT('',(17.5,-1.92264973081,1.7));
#719 = DIRECTION('',(0.,0.866025403784,-0.5));
#720 = DIRECTION('',(-1.,-0.,-0.));
#721 = ADVANCED_FACE('',(#722),#740,.F.);
#722 = FACE_BOUND('',#723,.T.);
#723 = EDGE_LOOP('',(#724,#732,#733,#734));
#724 = ORIENTED_EDGE('',*,*,#725,.F.);
#725 = EDGE_CURVE('',#319,#726,#728,.T.);
#726 = VERTEX_POINT('',#727);
#727 = CARTESIAN_POINT('',(17.5,-1.345299461621,5.3));
#728 = LINE('',#729,#730);
#729 = CARTESIAN_POINT('',(20.142857142857,0.180554821238,2.657142857143
    ));
#730 = VECTOR('',#731,1.);
#731 = DIRECTION('',(0.654653670708,0.377964473009,-0.654653670708));
#732 = ORIENTED_EDGE('',*,*,#318,.T.);
#733 = ORIENTED_EDGE('',*,*,#694,.T.);
#734 = ORIENTED_EDGE('',*,*,#735,.F.);
#735 = EDGE_CURVE('',#726,#695,#736,.T.);
#736 = LINE('',#737,#738);
#737 = CARTESIAN_POINT('',(17.5,-1.345299461621,5.3));
#738 = VECTOR('',#739,1.);
#739 = DIRECTION('',(0.,-2.22044604925E-16,-1.));
#740 = PLANE('',#741);
#741 = AXIS2_PLACEMENT_3D('',#742,#743,#744);
#742 = CARTESIAN_POINT('',(16.5,-1.92264973081,5.3));
#743 = DIRECTION('',(-0.5,0.866025403784,0.));
#744 = DIRECTION('',(9.614813431918E-17,5.551115123126E-17,1.));
#745 = ADVANCED_FACE('',(#746),#764,.F.);
#746 = FACE_BOUND('',#747,.T.);
#747 = EDGE_LOOP('',(#748,#749,#750,#758));
#748 = ORIENTED_EDGE('',*,*,#703,.F.);
#749 = ORIENTED_EDGE('',*,*,#334,.T.);
#750 = ORIENTED_EDGE('',*,*,#751,.T.);
#751 = EDGE_CURVE('',#327,#752,#754,.T.);
#752 = VERTEX_POINT('',#753);
#753 = CARTESIAN_POINT('',(32.5,-1.345299461621,5.3));
#754 = LINE('',#755,#756);
#755 = CARTESIAN_POINT('',(32.514285714286,-1.353547322609,
    5.314285714286));
#756 = VECTOR('',#757,1.);
#757 = DIRECTION('',(-0.654653670708,0.377964473009,-0.654653670708));
#758 = ORIENTED_EDGE('',*,*,#759,.F.);
#759 = EDGE_CURVE('',#704,#752,#760,.T.);
#760 = LINE('',#761,#762);
#761 = CARTESIAN_POINT('',(32.5,-1.345299461621,2.7));
#762 = VECTOR('',#763,1.);
#763 = DIRECTION('',(0.,2.22044604925E-16,1.));
#764 = PLANE('',#765);
#765 = AXIS2_PLACEMENT_3D('',#766,#767,#768);
#766 = CARTESIAN_POINT('',(33.5,-1.92264973081,2.7));
#767 = DIRECTION('',(0.5,0.866025403784,0.));
#768 = DIRECTION('',(9.614813431918E-17,-5.551115123126E-17,-1.));
#769 = ADVANCED_FACE('',(#770),#781,.F.);
#770 = FACE_BOUND('',#771,.T.);
#771 = EDGE_LOOP('',(#772,#773,#774,#775));
#772 = ORIENTED_EDGE('',*,*,#751,.F.);
#773 = ORIENTED_EDGE('',*,*,#326,.T.);
#774 = ORIENTED_EDGE('',*,*,#725,.T.);
#775 = ORIENTED_EDGE('',*,*,#776,.F.);
#776 = EDGE_CURVE('',#752,#726,#777,.T.);
#777 = LINE('',#778,#779);
#778 = CARTESIAN_POINT('',(32.5,-1.345299461621,5.3));
#779 = VECTOR('',#780,1.);
#780 = DIRECTION('',(-1.,0.,0.));
#781 = PLANE('',#782);
#782 = AXIS2_PLACEMENT_3D('',#783,#784,#785);
#783 = CARTESIAN_POINT('',(32.5,-1.92264973081,6.3));
#784 = DIRECTION('',(0.,0.866025403784,0.5));
#785 = DIRECTION('',(1.,0.,0.));
#786 = ADVANCED_FACE('',(#787),#812,.T.);
#787 = FACE_BOUND('',#788,.T.);
#788 = EDGE_LOOP('',(#789,#797,#798,#806));
#789 = ORIENTED_EDGE('',*,*,#790,.T.);
#790 = EDGE_CURVE('',#791,#464,#793,.T.);
#791 = VERTEX_POINT('',#792);
#792 = CARTESIAN_POINT('',(89.5,4.7,2.9));
#793 = LINE('',#794,#795);
#794 = CARTESIAN_POINT('',(89.5,4.7,2.9));
#795 = VECTOR('',#796,1.);
#796 = DIRECTION('',(1.,0.,0.));
#797 = ORIENTED_EDGE('',*,*,#463,.T.);
#798 = ORIENTED_EDGE('',*,*,#799,.F.);
#799 = EDGE_CURVE('',#800,#466,#802,.T.);
#800 = VERTEX_POINT('',#801);
#801 = CARTESIAN_POINT('',(89.5,25.3,2.9));
#802 = LINE('',#803,#804);
#803 = CARTESIAN_POINT('',(89.5,25.3,2.9));
#804 = VECTOR('',#805,1.);
#805 = DIRECTION('',(1.,0.,0.));
#806 = ORIENTED_EDGE('',*,*,#807,.F.);
#807 = EDGE_CURVE('',#791,#800,#808,.T.);
#808 = LINE('',#809,#810);
#809 = CARTESIAN_POINT('',(89.5,4.7,2.9));
#810 = VECTOR('',#811,1.);
#811 = DIRECTION('',(0.,1.,0.));
#812 = PLANE('',#813);
#813 = AXIS2_PLACEMENT_3D('',#814,#815,#816);
#814 = CARTESIAN_POINT('',(89.5,4.7,2.9));
#815 = DIRECTION('',(0.,0.,1.));
#816 = DIRECTION('',(0.,1.,0.));
#817 = ADVANCED_FACE('',(#818),#836,.T.);
#818 = FACE_BOUND('',#819,.T.);
#819 = EDGE_LOOP('',(#820,#821,#822,#830));
#820 = ORIENTED_EDGE('',*,*,#799,.T.);
#821 = ORIENTED_EDGE('',*,*,#473,.T.);
#822 = ORIENTED_EDGE('',*,*,#823,.F.);
#823 = EDGE_CURVE('',#824,#474,#826,.T.);
#824 = VERTEX_POINT('',#825);
#825 = CARTESIAN_POINT('',(89.5,25.3,23.5));
#826 = LINE('',#827,#828);
#827 = CARTESIAN_POINT('',(89.5,25.3,23.5));
#828 = VECTOR('',#829,1.);
#829 = DIRECTION('',(1.,0.,0.));
#830 = ORIENTED_EDGE('',*,*,#831,.F.);
#831 = EDGE_CURVE('',#800,#824,#832,.T.);
#832 = LINE('',#833,#834);
#833 = CARTESIAN_POINT('',(89.5,25.3,2.9));
#834 = VECTOR('',#835,1.);
#835 = DIRECTION('',(0.,0.,1.));
#836 = PLANE('',#837);
#837 = AXIS2_PLACEMENT_3D('',#838,#839,#840);
#838 = CARTESIAN_POINT('',(89.5,25.3,2.9));
#839 = DIRECTION('',(0.,-1.,0.));
#840 = DIRECTION('',(0.,0.,1.));
#841 = ADVANCED_FACE('',(#842),#860,.T.);
#842 = FACE_BOUND('',#843,.T.);
#843 = EDGE_LOOP('',(#844,#845,#846,#854));
#844 = ORIENTED_EDGE('',*,*,#823,.T.);
#845 = ORIENTED_EDGE('',*,*,#481,.T.);
#846 = ORIENTED_EDGE('',*,*,#847,.F.);
#847 = EDGE_CURVE('',#848,#482,#850,.T.);
#848 = VERTEX_POINT('',#849);
#849 = CARTESIAN_POINT('',(89.5,4.7,23.5));
#850 = LINE('',#851,#852);
#851 = CARTESIAN_POINT('',(89.5,4.7,23.5));
#852 = VECTOR('',#853,1.);
#853 = DIRECTION('',(1.,0.,0.));
#854 = ORIENTED_EDGE('',*,*,#855,.F.);
#855 = EDGE_CURVE('',#824,#848,#856,.T.);
#856 = LINE('',#857,#858);
#857 = CARTESIAN_POINT('',(89.5,25.3,23.5));
#858 = VECTOR('',#859,1.);
#859 = DIRECTION('',(0.,-1.,0.));
#860 = PLANE('',#861);
#861 = AXIS2_PLACEMENT_3D('',#862,#863,#864);
#862 = CARTESIAN_POINT('',(89.5,25.3,23.5));
#863 = DIRECTION('',(0.,0.,-1.));
#864 = DIRECTION('',(0.,-1.,0.));
#865 = ADVANCED_FACE('',(#866),#877,.T.);
#866 = FACE_BOUND('',#867,.T.);
#867 = EDGE_LOOP('',(#868,#869,#870,#871));
#868 = ORIENTED_EDGE('',*,*,#847,.T.);
#869 = ORIENTED_EDGE('',*,*,#489,.T.);
#870 = ORIENTED_EDGE('',*,*,#790,.F.);
#871 = ORIENTED_EDGE('',*,*,#872,.F.);
#872 = EDGE_CURVE('',#848,#791,#873,.T.);
#873 = LINE('',#874,#875);
#874 = CARTESIAN_POINT('',(89.5,4.7,23.5));
#875 = VECTOR('',#876,1.);
#876 = DIRECTION('',(0.,0.,-1.));
#877 = PLANE('',#878);
#878 = AXIS2_PLACEMENT_3D('',#879,#880,#881);
#879 = CARTESIAN_POINT('',(89.5,4.7,23.5));
#880 = DIRECTION('',(0.,1.,0.));
#881 = DIRECTION('',(0.,0.,-1.));
#882 = ADVANCED_FACE('',(#883,#889,#900,#911,#922),#933,.T.);
#883 = FACE_BOUND('',#884,.T.);
#884 = EDGE_LOOP('',(#885,#886,#887,#888));
#885 = ORIENTED_EDGE('',*,*,#512,.T.);
#886 = ORIENTED_EDGE('',*,*,#645,.T.);
#887 = ORIENTED_EDGE('',*,*,#566,.T.);
#888 = ORIENTED_EDGE('',*,*,#542,.T.);
#889 = FACE_BOUND('',#890,.T.);
#890 = EDGE_LOOP('',(#891));
#891 = ORIENTED_EDGE('',*,*,#892,.F.);
#892 = EDGE_CURVE('',#893,#893,#895,.T.);
#893 = VERTEX_POINT('',#894);
#894 = CARTESIAN_POINT('',(5.6,3.,2.));
#895 = CIRCLE('',#896,2.6);
#896 = AXIS2_PLACEMENT_3D('',#897,#898,#899);
#897 = CARTESIAN_POINT('',(3.,3.,2.));
#898 = DIRECTION('',(0.,0.,1.));
#899 = DIRECTION('',(1.,0.,0.));
#900 = FACE_BOUND('',#901,.T.);
#901 = EDGE_LOOP('',(#902));
#902 = ORIENTED_EDGE('',*,*,#903,.F.);
#903 = EDGE_CURVE('',#904,#904,#906,.T.);
#904 = VERTEX_POINT('',#905);
#905 = CARTESIAN_POINT('',(69.6,3.,2.));
#906 = CIRCLE('',#907,2.6);
#907 = AXIS2_PLACEMENT_3D('',#908,#909,#910);
#908 = CARTESIAN_POINT('',(67.,3.,2.));
#909 = DIRECTION('',(0.,0.,1.));
#910 = DIRECTION('',(1.,0.,0.));
#911 = FACE_BOUND('',#912,.T.);
#912 = EDGE_LOOP('',(#913));
#913 = ORIENTED_EDGE('',*,*,#914,.F.);
#914 = EDGE_CURVE('',#915,#915,#917,.T.);
#915 = VERTEX_POINT('',#916);
#916 = CARTESIAN_POINT('',(5.6,27.,2.));
#917 = CIRCLE('',#918,2.6);
#918 = AXIS2_PLACEMENT_3D('',#919,#920,#921);
#919 = CARTESIAN_POINT('',(3.,27.,2.));
#920 = DIRECTION('',(0.,0.,1.));
#921 = DIRECTION('',(1.,0.,0.));
#922 = FACE_BOUND('',#923,.T.);
#923 = EDGE_LOOP('',(#924));
#924 = ORIENTED_EDGE('',*,*,#925,.F.);
#925 = EDGE_CURVE('',#926,#926,#928,.T.);
#926 = VERTEX_POINT('',#927);
#927 = CARTESIAN_POINT('',(69.6,27.,2.));
#928 = CIRCLE('',#929,2.6);
#929 = AXIS2_PLACEMENT_3D('',#930,#931,#932);
#930 = CARTESIAN_POINT('',(67.,27.,2.));
#931 = DIRECTION('',(0.,0.,1.));
#932 = DIRECTION('',(1.,0.,0.));
#933 = PLANE('',#934);
#934 = AXIS2_PLACEMENT_3D('',#935,#936,#937);
#935 = CARTESIAN_POINT('',(43.5,15.,2.));
#936 = DIRECTION('',(0.,0.,1.));
#937 = DIRECTION('',(1.,0.,0.));
#938 = ADVANCED_FACE('',(#939),#958,.F.);
#939 = FACE_BOUND('',#940,.F.);
#940 = EDGE_LOOP('',(#941,#949,#956,#957));
#941 = ORIENTED_EDGE('',*,*,#942,.F.);
#942 = EDGE_CURVE('',#943,#583,#945,.T.);
#943 = VERTEX_POINT('',#944);
#944 = CARTESIAN_POINT('',(89.5,9.,20.45));
#945 = LINE('',#946,#947);
#946 = CARTESIAN_POINT('',(89.5,9.,20.45));
#947 = VECTOR('',#948,1.);
#948 = DIRECTION('',(-1.,-0.,-0.));
#949 = ORIENTED_EDGE('',*,*,#950,.F.);
#950 = EDGE_CURVE('',#943,#943,#951,.T.);
#951 = CIRCLE('',#952,1.25);
#952 = AXIS2_PLACEMENT_3D('',#953,#954,#955);
#953 = CARTESIAN_POINT('',(89.5,7.75,20.45));
#954 = DIRECTION('',(1.,0.,0.));
#955 = DIRECTION('',(0.,1.,0.));
#956 = ORIENTED_EDGE('',*,*,#942,.T.);
#957 = ORIENTED_EDGE('',*,*,#582,.T.);
#958 = CYLINDRICAL_SURFACE('',#959,1.25);
#959 = AXIS2_PLACEMENT_3D('',#960,#961,#962);
#960 = CARTESIAN_POINT('',(89.5,7.75,20.45));
#961 = DIRECTION('',(1.,0.,0.));
#962 = DIRECTION('',(0.,1.,0.));
#963 = ADVANCED_FACE('',(#964),#983,.F.);
#964 = FACE_BOUND('',#965,.F.);
#965 = EDGE_LOOP('',(#966,#974,#981,#982));
#966 = ORIENTED_EDGE('',*,*,#967,.F.);
#967 = EDGE_CURVE('',#968,#594,#970,.T.);
#968 = VERTEX_POINT('',#969);
#969 = CARTESIAN_POINT('',(89.5,23.5,20.45));
#970 = LINE('',#971,#972);
#971 = CARTESIAN_POINT('',(89.5,23.5,20.45));
#972 = VECTOR('',#973,1.);
#973 = DIRECTION('',(-1.,-0.,-0.));
#974 = ORIENTED_EDGE('',*,*,#975,.F.);
#975 = EDGE_CURVE('',#968,#968,#976,.T.);
#976 = CIRCLE('',#977,1.25);
#977 = AXIS2_PLACEMENT_3D('',#978,#979,#980);
#978 = CARTESIAN_POINT('',(89.5,22.25,20.45));
#979 = DIRECTION('',(1.,0.,0.));
#980 = DIRECTION('',(0.,1.,0.));
#981 = ORIENTED_EDGE('',*,*,#967,.T.);
#982 = ORIENTED_EDGE('',*,*,#593,.T.);
#983 = CYLINDRICAL_SURFACE('',#984,1.25);
#984 = AXIS2_PLACEMENT_3D('',#985,#986,#987);
#985 = CARTESIAN_POINT('',(89.5,22.25,20.45));
#986 = DIRECTION('',(1.,0.,0.));
#987 = DIRECTION('',(0.,1.,0.));
#988 = ADVANCED_FACE('',(#989),#1008,.F.);
#989 = FACE_BOUND('',#990,.F.);
#990 = EDGE_LOOP('',(#991,#999,#1006,#1007));
#991 = ORIENTED_EDGE('',*,*,#992,.F.);
#992 = EDGE_CURVE('',#993,#605,#995,.T.);
#993 = VERTEX_POINT('',#994);
#994 = CARTESIAN_POINT('',(89.5,9.,5.95));
#995 = LINE('',#996,#997);
#996 = CARTESIAN_POINT('',(89.5,9.,5.95));
#997 = VECTOR('',#998,1.);
#998 = DIRECTION('',(-1.,-0.,-0.));
#999 = ORIENTED_EDGE('',*,*,#1000,.F.);
#1000 = EDGE_CURVE('',#993,#993,#1001,.T.);
#1001 = CIRCLE('',#1002,1.25);
#1002 = AXIS2_PLACEMENT_3D('',#1003,#1004,#1005);
#1003 = CARTESIAN_POINT('',(89.5,7.75,5.95));
#1004 = DIRECTION('',(1.,0.,0.));
#1005 = DIRECTION('',(0.,1.,0.));
#1006 = ORIENTED_EDGE('',*,*,#992,.T.);
#1007 = ORIENTED_EDGE('',*,*,#604,.T.);
#1008 = CYLINDRICAL_SURFACE('',#1009,1.25);
#1009 = AXIS2_PLACEMENT_3D('',#1010,#1011,#1012);
#1010 = CARTESIAN_POINT('',(89.5,7.75,5.95));
#1011 = DIRECTION('',(1.,0.,0.));
#1012 = DIRECTION('',(0.,1.,0.));
#1013 = ADVANCED_FACE('',(#1014),#1033,.F.);
#1014 = FACE_BOUND('',#1015,.F.);
#1015 = EDGE_LOOP('',(#1016,#1024,#1031,#1032));
#1016 = ORIENTED_EDGE('',*,*,#1017,.F.);
#1017 = EDGE_CURVE('',#1018,#616,#1020,.T.);
#1018 = VERTEX_POINT('',#1019);
#1019 = CARTESIAN_POINT('',(89.5,21.75,13.2));
#1020 = LINE('',#1021,#1022);
#1021 = CARTESIAN_POINT('',(89.5,21.75,13.2));
#1022 = VECTOR('',#1023,1.);
#1023 = DIRECTION('',(-1.,-0.,-0.));
#1024 = ORIENTED_EDGE('',*,*,#1025,.F.);
#1025 = EDGE_CURVE('',#1018,#1018,#1026,.T.);
#1026 = CIRCLE('',#1027,6.75);
#1027 = AXIS2_PLACEMENT_3D('',#1028,#1029,#1030);
#1028 = CARTESIAN_POINT('',(89.5,15.,13.2));
#1029 = DIRECTION('',(1.,0.,0.));
#1030 = DIRECTION('',(0.,1.,0.));
#1031 = ORIENTED_EDGE('',*,*,#1017,.T.);
#1032 = ORIENTED_EDGE('',*,*,#615,.T.);
#1033 = CYLINDRICAL_SURFACE('',#1034,6.75);
#1034 = AXIS2_PLACEMENT_3D('',#1035,#1036,#1037);
#1035 = CARTESIAN_POINT('',(89.5,15.,13.2));
#1036 = DIRECTION('',(1.,0.,0.));
#1037 = DIRECTION('',(0.,1.,0.));
#1038 = ADVANCED_FACE('',(#1039),#1058,.F.);
#1039 = FACE_BOUND('',#1040,.F.);
#1040 = EDGE_LOOP('',(#1041,#1049,#1056,#1057));
#1041 = ORIENTED_EDGE('',*,*,#1042,.F.);
#1042 = EDGE_CURVE('',#1043,#627,#1045,.T.);
#1043 = VERTEX_POINT('',#1044);
#1044 = CARTESIAN_POINT('',(89.5,23.5,5.95));
#1045 = LINE('',#1046,#1047);
#1046 = CARTESIAN_POINT('',(89.5,23.5,5.95));
#1047 = VECTOR('',#1048,1.);
#1048 = DIRECTION('',(-1.,-0.,-0.));
#1049 = ORIENTED_EDGE('',*,*,#1050,.F.);
#1050 = EDGE_CURVE('',#1043,#1043,#1051,.T.);
#1051 = CIRCLE('',#1052,1.25);
#1052 = AXIS2_PLACEMENT_3D('',#1053,#1054,#1055);
#1053 = CARTESIAN_POINT('',(89.5,22.25,5.95));
#1054 = DIRECTION('',(1.,0.,0.));
#1055 = DIRECTION('',(0.,1.,0.));
#1056 = ORIENTED_EDGE('',*,*,#1042,.T.);
#1057 = ORIENTED_EDGE('',*,*,#626,.T.);
#1058 = CYLINDRICAL_SURFACE('',#1059,1.25);
#1059 = AXIS2_PLACEMENT_3D('',#1060,#1061,#1062);
#1060 = CARTESIAN_POINT('',(89.5,22.25,5.95));
#1061 = DIRECTION('',(1.,0.,0.));
#1062 = DIRECTION('',(0.,1.,0.));
#1063 = ADVANCED_FACE('',(#1064),#1080,.F.);
#1064 = FACE_BOUND('',#1065,.F.);
#1065 = EDGE_LOOP('',(#1066,#1072,#1073,#1079));
#1066 = ORIENTED_EDGE('',*,*,#1067,.F.);
#1067 = EDGE_CURVE('',#695,#657,#1068,.T.);
#1068 = LINE('',#1069,#1070);
#1069 = CARTESIAN_POINT('',(17.5,-2.5,2.7));
#1070 = VECTOR('',#1071,1.);
#1071 = DIRECTION('',(0.,1.,-2.22044604925E-16));
#1072 = ORIENTED_EDGE('',*,*,#735,.F.);
#1073 = ORIENTED_EDGE('',*,*,#1074,.T.);
#1074 = EDGE_CURVE('',#726,#655,#1075,.T.);
#1075 = LINE('',#1076,#1077);
#1076 = CARTESIAN_POINT('',(17.5,-2.5,5.3));
#1077 = VECTOR('',#1078,1.);
#1078 = DIRECTION('',(0.,1.,-2.22044604925E-16));
#1079 = ORIENTED_EDGE('',*,*,#654,.T.);
#1080 = PLANE('',#1081);
#1081 = AXIS2_PLACEMENT_3D('',#1082,#1083,#1084);
#1082 = CARTESIAN_POINT('',(17.5,-2.5,5.3));
#1083 = DIRECTION('',(-1.,0.,0.));
#1084 = DIRECTION('',(0.,-2.22044604925E-16,-1.));
#1085 = ADVANCED_FACE('',(#1086),#1097,.F.);
#1086 = FACE_BOUND('',#1087,.F.);
#1087 = EDGE_LOOP('',(#1088,#1089,#1090,#1096));
#1088 = ORIENTED_EDGE('',*,*,#1074,.F.);
#1089 = ORIENTED_EDGE('',*,*,#776,.F.);
#1090 = ORIENTED_EDGE('',*,*,#1091,.T.);
#1091 = EDGE_CURVE('',#752,#673,#1092,.T.);
#1092 = LINE('',#1093,#1094);
#1093 = CARTESIAN_POINT('',(32.5,-2.5,5.3));
#1094 = VECTOR('',#1095,1.);
#1095 = DIRECTION('',(0.,1.,-2.22044604925E-16));
#1096 = ORIENTED_EDGE('',*,*,#680,.T.);
#1097 = PLANE('',#1098);
#1098 = AXIS2_PLACEMENT_3D('',#1099,#1100,#1101);
#1099 = CARTESIAN_POINT('',(32.5,-2.5,5.3));
#1100 = DIRECTION('',(0.,2.22044604925E-16,1.));
#1101 = DIRECTION('',(-1.,0.,0.));
#1102 = ADVANCED_FACE('',(#1103),#1114,.F.);
#1103 = FACE_BOUND('',#1104,.F.);
#1104 = EDGE_LOOP('',(#1105,#1106,#1107,#1113));
#1105 = ORIENTED_EDGE('',*,*,#1091,.F.);
#1106 = ORIENTED_EDGE('',*,*,#759,.F.);
#1107 = ORIENTED_EDGE('',*,*,#1108,.T.);
#1108 = EDGE_CURVE('',#704,#665,#1109,.T.);
#1109 = LINE('',#1110,#1111);
#1110 = CARTESIAN_POINT('',(32.5,-2.5,2.7));
#1111 = VECTOR('',#1112,1.);
#1112 = DIRECTION('',(0.,1.,-2.22044604925E-16));
#1113 = ORIENTED_EDGE('',*,*,#672,.T.);
#1114 = PLANE('',#1115);
#1115 = AXIS2_PLACEMENT_3D('',#1116,#1117,#1118);
#1116 = CARTESIAN_POINT('',(32.5,-2.5,2.7));
#1117 = DIRECTION('',(1.,0.,0.));
#1118 = DIRECTION('',(0.,2.22044604925E-16,1.));
#1119 = ADVANCED_FACE('',(#1120),#1126,.F.);
#1120 = FACE_BOUND('',#1121,.F.);
#1121 = EDGE_LOOP('',(#1122,#1123,#1124,#1125));
#1122 = ORIENTED_EDGE('',*,*,#1108,.F.);
#1123 = ORIENTED_EDGE('',*,*,#711,.F.);
#1124 = ORIENTED_EDGE('',*,*,#1067,.T.);
#1125 = ORIENTED_EDGE('',*,*,#664,.T.);
#1126 = PLANE('',#1127);
#1127 = AXIS2_PLACEMENT_3D('',#1128,#1129,#1130);
#1128 = CARTESIAN_POINT('',(17.5,-2.5,2.7));
#1129 = DIRECTION('',(0.,-2.22044604925E-16,-1.));
#1130 = DIRECTION('',(1.,0.,0.));
#1131 = ADVANCED_FACE('',(#1132,#1138,#1141,#1144,#1147,#1150),#1153,.F.
  );
#1132 = FACE_BOUND('',#1133,.F.);
#1133 = EDGE_LOOP('',(#1134,#1135,#1136,#1137));
#1134 = ORIENTED_EDGE('',*,*,#807,.F.);
#1135 = ORIENTED_EDGE('',*,*,#872,.F.);
#1136 = ORIENTED_EDGE('',*,*,#855,.F.);
#1137 = ORIENTED_EDGE('',*,*,#831,.F.);
#1138 = FACE_BOUND('',#1139,.F.);
#1139 = EDGE_LOOP('',(#1140));
#1140 = ORIENTED_EDGE('',*,*,#950,.T.);
#1141 = FACE_BOUND('',#1142,.F.);
#1142 = EDGE_LOOP('',(#1143));
#1143 = ORIENTED_EDGE('',*,*,#975,.T.);
#1144 = FACE_BOUND('',#1145,.F.);
#1145 = EDGE_LOOP('',(#1146));
#1146 = ORIENTED_EDGE('',*,*,#1000,.T.);
#1147 = FACE_BOUND('',#1148,.F.);
#1148 = EDGE_LOOP('',(#1149));
#1149 = ORIENTED_EDGE('',*,*,#1025,.T.);
#1150 = FACE_BOUND('',#1151,.F.);
#1151 = EDGE_LOOP('',(#1152));
#1152 = ORIENTED_EDGE('',*,*,#1050,.T.);
#1153 = PLANE('',#1154);
#1154 = AXIS2_PLACEMENT_3D('',#1155,#1156,#1157);
#1155 = CARTESIAN_POINT('',(89.5,-2.5,0.));
#1156 = DIRECTION('',(-1.,0.,0.));
#1157 = DIRECTION('',(0.,1.,0.));
#1158 = ADVANCED_FACE('',(#1159),#1178,.T.);
#1159 = FACE_BOUND('',#1160,.F.);
#1160 = EDGE_LOOP('',(#1161,#1169,#1176,#1177));
#1161 = ORIENTED_EDGE('',*,*,#1162,.T.);
#1162 = EDGE_CURVE('',#893,#1163,#1165,.T.);
#1163 = VERTEX_POINT('',#1164);
#1164 = CARTESIAN_POINT('',(5.6,3.,7.));
#1165 = LINE('',#1166,#1167);
#1166 = CARTESIAN_POINT('',(5.6,3.,2.));
#1167 = VECTOR('',#1168,1.);
#1168 = DIRECTION('',(0.,0.,1.));
#1169 = ORIENTED_EDGE('',*,*,#1170,.T.);
#1170 = EDGE_CURVE('',#1163,#1163,#1171,.T.);
#1171 = CIRCLE('',#1172,2.6);
#1172 = AXIS2_PLACEMENT_3D('',#1173,#1174,#1175);
#1173 = CARTESIAN_POINT('',(3.,3.,7.));
#1174 = DIRECTION('',(0.,0.,1.));
#1175 = DIRECTION('',(1.,0.,0.));
#1176 = ORIENTED_EDGE('',*,*,#1162,.F.);
#1177 = ORIENTED_EDGE('',*,*,#892,.F.);
#1178 = CYLINDRICAL_SURFACE('',#1179,2.6);
#1179 = AXIS2_PLACEMENT_3D('',#1180,#1181,#1182);
#1180 = CARTESIAN_POINT('',(3.,3.,2.));
#1181 = DIRECTION('',(-0.,-0.,-1.));
#1182 = DIRECTION('',(1.,0.,0.));
#1183 = ADVANCED_FACE('',(#1184),#1203,.T.);
#1184 = FACE_BOUND('',#1185,.F.);
#1185 = EDGE_LOOP('',(#1186,#1194,#1201,#1202));
#1186 = ORIENTED_EDGE('',*,*,#1187,.T.);
#1187 = EDGE_CURVE('',#904,#1188,#1190,.T.);
#1188 = VERTEX_POINT('',#1189);
#1189 = CARTESIAN_POINT('',(69.6,3.,7.));
#1190 = LINE('',#1191,#1192);
#1191 = CARTESIAN_POINT('',(69.6,3.,2.));
#1192 = VECTOR('',#1193,1.);
#1193 = DIRECTION('',(0.,0.,1.));
#1194 = ORIENTED_EDGE('',*,*,#1195,.T.);
#1195 = EDGE_CURVE('',#1188,#1188,#1196,.T.);
#1196 = CIRCLE('',#1197,2.6);
#1197 = AXIS2_PLACEMENT_3D('',#1198,#1199,#1200);
#1198 = CARTESIAN_POINT('',(67.,3.,7.));
#1199 = DIRECTION('',(0.,0.,1.));
#1200 = DIRECTION('',(1.,0.,0.));
#1201 = ORIENTED_EDGE('',*,*,#1187,.F.);
#1202 = ORIENTED_EDGE('',*,*,#903,.F.);
#1203 = CYLINDRICAL_SURFACE('',#1204,2.6);
#1204 = AXIS2_PLACEMENT_3D('',#1205,#1206,#1207);
#1205 = CARTESIAN_POINT('',(67.,3.,2.));
#1206 = DIRECTION('',(-0.,-0.,-1.));
#1207 = DIRECTION('',(1.,0.,0.));
#1208 = ADVANCED_FACE('',(#1209),#1228,.T.);
#1209 = FACE_BOUND('',#1210,.F.);
#1210 = EDGE_LOOP('',(#1211,#1219,#1226,#1227));
#1211 = ORIENTED_EDGE('',*,*,#1212,.T.);
#1212 = EDGE_CURVE('',#915,#1213,#1215,.T.);
#1213 = VERTEX_POINT('',#1214);
#1214 = CARTESIAN_POINT('',(5.6,27.,7.));
#1215 = LINE('',#1216,#1217);
#1216 = CARTESIAN_POINT('',(5.6,27.,2.));
#1217 = VECTOR('',#1218,1.);
#1218 = DIRECTION('',(0.,0.,1.));
#1219 = ORIENTED_EDGE('',*,*,#1220,.T.);
#1220 = EDGE_CURVE('',#1213,#1213,#1221,.T.);
#1221 = CIRCLE('',#1222,2.6);
#1222 = AXIS2_PLACEMENT_3D('',#1223,#1224,#1225);
#1223 = CARTESIAN_POINT('',(3.,27.,7.));
#1224 = DIRECTION('',(0.,0.,1.));
#1225 = DIRECTION('',(1.,0.,0.));
#1226 = ORIENTED_EDGE('',*,*,#1212,.F.);
#1227 = ORIENTED_EDGE('',*,*,#914,.F.);
#1228 = CYLINDRICAL_SURFACE('',#1229,2.6);
#1229 = AXIS2_PLACEMENT_3D('',#1230,#1231,#1232);
#1230 = CARTESIAN_POINT('',(3.,27.,2.));
#1231 = DIRECTION('',(-0.,-0.,-1.));
#1232 = DIRECTION('',(1.,0.,0.));
#1233 = ADVANCED_FACE('',(#1234),#1253,.T.);
#1234 = FACE_BOUND('',#1235,.F.);
#1235 = EDGE_LOOP('',(#1236,#1244,#1251,#1252));
#1236 = ORIENTED_EDGE('',*,*,#1237,.T.);
#1237 = EDGE_CURVE('',#926,#1238,#1240,.T.);
#1238 = VERTEX_POINT('',#1239);
#1239 = CARTESIAN_POINT('',(69.6,27.,7.));
#1240 = LINE('',#1241,#1242);
#1241 = CARTESIAN_POINT('',(69.6,27.,2.));
#1242 = VECTOR('',#1243,1.);
#1243 = DIRECTION('',(0.,0.,1.));
#1244 = ORIENTED_EDGE('',*,*,#1245,.T.);
#1245 = EDGE_CURVE('',#1238,#1238,#1246,.T.);
#1246 = CIRCLE('',#1247,2.6);
#1247 = AXIS2_PLACEMENT_3D('',#1248,#1249,#1250);
#1248 = CARTESIAN_POINT('',(67.,27.,7.));
#1249 = DIRECTION('',(0.,0.,1.));
#1250 = DIRECTION('',(1.,0.,0.));
#1251 = ORIENTED_EDGE('',*,*,#1237,.F.);
#1252 = ORIENTED_EDGE('',*,*,#925,.F.);
#1253 = CYLINDRICAL_SURFACE('',#1254,2.6);
#1254 = AXIS2_PLACEMENT_3D('',#1255,#1256,#1257);
#1255 = CARTESIAN_POINT('',(67.,27.,2.));
#1256 = DIRECTION('',(-0.,-0.,-1.));
#1257 = DIRECTION('',(1.,0.,0.));
#1258 = ADVANCED_FACE('',(#1259,#1262),#1273,.T.);
#1259 = FACE_BOUND('',#1260,.T.);
#1260 = EDGE_LOOP('',(#1261));
#1261 = ORIENTED_EDGE('',*,*,#1170,.T.);
#1262 = FACE_BOUND('',#1263,.F.);
#1263 = EDGE_LOOP('',(#1264));
#1264 = ORIENTED_EDGE('',*,*,#1265,.T.);
#1265 = EDGE_CURVE('',#1266,#1266,#1268,.T.);
#1266 = VERTEX_POINT('',#1267);
#1267 = CARTESIAN_POINT('',(4.6,3.,7.));
#1268 = CIRCLE('',#1269,1.6);
#1269 = AXIS2_PLACEMENT_3D('',#1270,#1271,#1272);
#1270 = CARTESIAN_POINT('',(3.,3.,7.));
#1271 = DIRECTION('',(0.,0.,1.));
#1272 = DIRECTION('',(1.,0.,0.));
#1273 = PLANE('',#1274);
#1274 = AXIS2_PLACEMENT_3D('',#1275,#1276,#1277);
#1275 = CARTESIAN_POINT('',(35.,15.,7.));
#1276 = DIRECTION('',(0.,0.,1.));
#1277 = DIRECTION('',(1.,0.,0.));
#1278 = ADVANCED_FACE('',(#1279,#1282),#1293,.T.);
#1279 = FACE_BOUND('',#1280,.T.);
#1280 = EDGE_LOOP('',(#1281));
#1281 = ORIENTED_EDGE('',*,*,#1195,.T.);
#1282 = FACE_BOUND('',#1283,.F.);
#1283 = EDGE_LOOP('',(#1284));
#1284 = ORIENTED_EDGE('',*,*,#1285,.T.);
#1285 = EDGE_CURVE('',#1286,#1286,#1288,.T.);
#1286 = VERTEX_POINT('',#1287);
#1287 = CARTESIAN_POINT('',(68.6,3.,7.));
#1288 = CIRCLE('',#1289,1.6);
#1289 = AXIS2_PLACEMENT_3D('',#1290,#1291,#1292);
#1290 = CARTESIAN_POINT('',(67.,3.,7.));
#1291 = DIRECTION('',(0.,0.,1.));
#1292 = DIRECTION('',(1.,0.,0.));
#1293 = PLANE('',#1294);
#1294 = AXIS2_PLACEMENT_3D('',#1295,#1296,#1297);
#1295 = CARTESIAN_POINT('',(35.,15.,7.));
#1296 = DIRECTION('',(0.,0.,1.));
#1297 = DIRECTION('',(1.,0.,0.));
#1298 = ADVANCED_FACE('',(#1299,#1302),#1313,.T.);
#1299 = FACE_BOUND('',#1300,.T.);
#1300 = EDGE_LOOP('',(#1301));
#1301 = ORIENTED_EDGE('',*,*,#1220,.T.);
#1302 = FACE_BOUND('',#1303,.F.);
#1303 = EDGE_LOOP('',(#1304));
#1304 = ORIENTED_EDGE('',*,*,#1305,.T.);
#1305 = EDGE_CURVE('',#1306,#1306,#1308,.T.);
#1306 = VERTEX_POINT('',#1307);
#1307 = CARTESIAN_POINT('',(4.6,27.,7.));
#1308 = CIRCLE('',#1309,1.6);
#1309 = AXIS2_PLACEMENT_3D('',#1310,#1311,#1312);
#1310 = CARTESIAN_POINT('',(3.,27.,7.));
#1311 = DIRECTION('',(0.,0.,1.));
#1312 = DIRECTION('',(1.,0.,0.));
#1313 = PLANE('',#1314);
#1314 = AXIS2_PLACEMENT_3D('',#1315,#1316,#1317);
#1315 = CARTESIAN_POINT('',(35.,15.,7.));
#1316 = DIRECTION('',(0.,0.,1.));
#1317 = DIRECTION('',(1.,0.,0.));
#1318 = ADVANCED_FACE('',(#1319,#1322),#1333,.T.);
#1319 = FACE_BOUND('',#1320,.T.);
#1320 = EDGE_LOOP('',(#1321));
#1321 = ORIENTED_EDGE('',*,*,#1245,.T.);
#1322 = FACE_BOUND('',#1323,.F.);
#1323 = EDGE_LOOP('',(#1324));
#1324 = ORIENTED_EDGE('',*,*,#1325,.T.);
#1325 = EDGE_CURVE('',#1326,#1326,#1328,.T.);
#1326 = VERTEX_POINT('',#1327);
#1327 = CARTESIAN_POINT('',(68.6,27.,7.));
#1328 = CIRCLE('',#1329,1.6);
#1329 = AXIS2_PLACEMENT_3D('',#1330,#1331,#1332);
#1330 = CARTESIAN_POINT('',(67.,27.,7.));
#1331 = DIRECTION('',(0.,0.,1.));
#1332 = DIRECTION('',(1.,0.,0.));
#1333 = PLANE('',#1334);
#1334 = AXIS2_PLACEMENT_3D('',#1335,#1336,#1337);
#1335 = CARTESIAN_POINT('',(35.,15.,7.));
#1336 = DIRECTION('',(0.,0.,1.));
#1337 = DIRECTION('',(1.,0.,0.));
#1338 = ADVANCED_FACE('',(#1339),#1358,.F.);
#1339 = FACE_BOUND('',#1340,.T.);
#1340 = EDGE_LOOP('',(#1341,#1349,#1350,#1351));
#1341 = ORIENTED_EDGE('',*,*,#1342,.T.);
#1342 = EDGE_CURVE('',#1343,#1266,#1345,.T.);
#1343 = VERTEX_POINT('',#1344);
#1344 = CARTESIAN_POINT('',(4.6,3.,2.));
#1345 = LINE('',#1346,#1347);
#1346 = CARTESIAN_POINT('',(4.6,3.,2.));
#1347 = VECTOR('',#1348,1.);
#1348 = DIRECTION('',(0.,0.,1.));
#1349 = ORIENTED_EDGE('',*,*,#1265,.T.);
#1350 = ORIENTED_EDGE('',*,*,#1342,.F.);
#1351 = ORIENTED_EDGE('',*,*,#1352,.F.);
#1352 = EDGE_CURVE('',#1343,#1343,#1353,.T.);
#1353 = CIRCLE('',#1354,1.6);
#1354 = AXIS2_PLACEMENT_3D('',#1355,#1356,#1357);
#1355 = CARTESIAN_POINT('',(3.,3.,2.));
#1356 = DIRECTION('',(0.,0.,1.));
#1357 = DIRECTION('',(1.,0.,0.));
#1358 = CYLINDRICAL_SURFACE('',#1359,1.6);
#1359 = AXIS2_PLACEMENT_3D('',#1360,#1361,#1362);
#1360 = CARTESIAN_POINT('',(3.,3.,2.));
#1361 = DIRECTION('',(-0.,-0.,-1.));
#1362 = DIRECTION('',(1.,0.,0.));
#1363 = ADVANCED_FACE('',(#1364),#1383,.F.);
#1364 = FACE_BOUND('',#1365,.T.);
#1365 = EDGE_LOOP('',(#1366,#1374,#1375,#1376));
#1366 = ORIENTED_EDGE('',*,*,#1367,.T.);
#1367 = EDGE_CURVE('',#1368,#1286,#1370,.T.);
#1368 = VERTEX_POINT('',#1369);
#1369 = CARTESIAN_POINT('',(68.6,3.,2.));
#1370 = LINE('',#1371,#1372);
#1371 = CARTESIAN_POINT('',(68.6,3.,2.));
#1372 = VECTOR('',#1373,1.);
#1373 = DIRECTION('',(0.,0.,1.));
#1374 = ORIENTED_EDGE('',*,*,#1285,.T.);
#1375 = ORIENTED_EDGE('',*,*,#1367,.F.);
#1376 = ORIENTED_EDGE('',*,*,#1377,.F.);
#1377 = EDGE_CURVE('',#1368,#1368,#1378,.T.);
#1378 = CIRCLE('',#1379,1.6);
#1379 = AXIS2_PLACEMENT_3D('',#1380,#1381,#1382);
#1380 = CARTESIAN_POINT('',(67.,3.,2.));
#1381 = DIRECTION('',(0.,0.,1.));
#1382 = DIRECTION('',(1.,0.,0.));
#1383 = CYLINDRICAL_SURFACE('',#1384,1.6);
#1384 = AXIS2_PLACEMENT_3D('',#1385,#1386,#1387);
#1385 = CARTESIAN_POINT('',(67.,3.,2.));
#1386 = DIRECTION('',(-0.,-0.,-1.));
#1387 = DIRECTION('',(1.,0.,0.));
#1388 = ADVANCED_FACE('',(#1389),#1408,.F.);
#1389 = FACE_BOUND('',#1390,.T.);
#1390 = EDGE_LOOP('',(#1391,#1399,#1400,#1401));
#1391 = ORIENTED_EDGE('',*,*,#1392,.T.);
#1392 = EDGE_CURVE('',#1393,#1306,#1395,.T.);
#1393 = VERTEX_POINT('',#1394);
#1394 = CARTESIAN_POINT('',(4.6,27.,2.));
#1395 = LINE('',#1396,#1397);
#1396 = CARTESIAN_POINT('',(4.6,27.,2.));
#1397 = VECTOR('',#1398,1.);
#1398 = DIRECTION('',(0.,0.,1.));
#1399 = ORIENTED_EDGE('',*,*,#1305,.T.);
#1400 = ORIENTED_EDGE('',*,*,#1392,.F.);
#1401 = ORIENTED_EDGE('',*,*,#1402,.F.);
#1402 = EDGE_CURVE('',#1393,#1393,#1403,.T.);
#1403 = CIRCLE('',#1404,1.6);
#1404 = AXIS2_PLACEMENT_3D('',#1405,#1406,#1407);
#1405 = CARTESIAN_POINT('',(3.,27.,2.));
#1406 = DIRECTION('',(0.,0.,1.));
#1407 = DIRECTION('',(1.,0.,0.));
#1408 = CYLINDRICAL_SURFACE('',#1409,1.6);
#1409 = AXIS2_PLACEMENT_3D('',#1410,#1411,#1412);
#1410 = CARTESIAN_POINT('',(3.,27.,2.));
#1411 = DIRECTION('',(-0.,-0.,-1.));
#1412 = DIRECTION('',(1.,0.,0.));
#1413 = ADVANCED_FACE('',(#1414),#1433,.F.);
#1414 = FACE_BOUND('',#1415,.T.);
#1415 = EDGE_LOOP('',(#1416,#1424,#1425,#1426));
#1416 = ORIENTED_EDGE('',*,*,#1417,.T.);
#1417 = EDGE_CURVE('',#1418,#1326,#1420,.T.);
#1418 = VERTEX_POINT('',#1419);
#1419 = CARTESIAN_POINT('',(68.6,27.,2.));
#1420 = LINE('',#1421,#1422);
#1421 = CARTESIAN_POINT('',(68.6,27.,2.));
#1422 = VECTOR('',#1423,1.);
#1423 = DIRECTION('',(0.,0.,1.));
#1424 = ORIENTED_EDGE('',*,*,#1325,.T.);
#1425 = ORIENTED_EDGE('',*,*,#1417,.F.);
#1426 = ORIENTED_EDGE('',*,*,#1427,.F.);
#1427 = EDGE_CURVE('',#1418,#1418,#1428,.T.);
#1428 = CIRCLE('',#1429,1.6);
#1429 = AXIS2_PLACEMENT_3D('',#1430,#1431,#1432);
#1430 = CARTESIAN_POINT('',(67.,27.,2.));
#1431 = DIRECTION('',(0.,0.,1.));
#1432 = DIRECTION('',(1.,0.,0.));
#1433 = CYLINDRICAL_SURFACE('',#1434,1.6);
#1434 = AXIS2_PLACEMENT_3D('',#1435,#1436,#1437);
#1435 = CARTESIAN_POINT('',(67.,27.,2.));
#1436 = DIRECTION('',(-0.,-0.,-1.));
#1437 = DIRECTION('',(1.,0.,0.));
#1438 = ADVANCED_FACE('',(#1439),#1442,.T.);
#1439 = FACE_BOUND('',#1440,.T.);
#1440 = EDGE_LOOP('',(#1441));
#1441 = ORIENTED_EDGE('',*,*,#1352,.T.);
#1442 = PLANE('',#1443);
#1443 = AXIS2_PLACEMENT_3D('',#1444,#1445,#1446);
#1444 = CARTESIAN_POINT('',(43.5,15.,2.));
#1445 = DIRECTION('',(0.,0.,1.));
#1446 = DIRECTION('',(1.,0.,0.));
#1447 = ADVANCED_FACE('',(#1448),#1451,.T.);
#1448 = FACE_BOUND('',#1449,.T.);
#1449 = EDGE_LOOP('',(#1450));
#1450 = ORIENTED_EDGE('',*,*,#1377,.T.);
#1451 = PLANE('',#1452);
#1452 = AXIS2_PLACEMENT_3D('',#1453,#1454,#1455);
#1453 = CARTESIAN_POINT('',(43.5,15.,2.));
#1454 = DIRECTION('',(0.,0.,1.));
#1455 = DIRECTION('',(1.,0.,0.));
#1456 = ADVANCED_FACE('',(#1457),#1460,.T.);
#1457 = FACE_BOUND('',#1458,.T.);
#1458 = EDGE_LOOP('',(#1459));
#1459 = ORIENTED_EDGE('',*,*,#1402,.T.);
#1460 = PLANE('',#1461);
#1461 = AXIS2_PLACEMENT_3D('',#1462,#1463,#1464);
#1462 = CARTESIAN_POINT('',(43.5,15.,2.));
#1463 = DIRECTION('',(0.,0.,1.));
#1464 = DIRECTION('',(1.,0.,0.));
#1465 = ADVANCED_FACE('',(#1466),#1469,.T.);
#1466 = FACE_BOUND('',#1467,.T.);
#1467 = EDGE_LOOP('',(#1468));
#1468 = ORIENTED_EDGE('',*,*,#1427,.T.);
#1469 = PLANE('',#1470);
#1470 = AXIS2_PLACEMENT_3D('',#1471,#1472,#1473);
#1471 = CARTESIAN_POINT('',(43.5,15.,2.));
#1472 = DIRECTION('',(0.,0.,1.));
#1473 = DIRECTION('',(1.,0.,0.));
#1474 = ( GEOMETRIC_REPRESENTATION_CONTEXT(3) 
GLOBAL_UNCERTAINTY_ASSIGNED_CONTEXT((#1478)) 
GLOBAL_UNIT_ASSIGNED_CONTEXT((#1475,#1476,#1477)) REPRESENTATION_CONTEXT
('Context #1','3D Context with UNIT and UNCERTAINTY') );
#1475 = ( LENGTH_UNIT() NAMED_UNIT(*) SI_UNIT(.MILLI.,.METRE.) );
#1476 = ( NAMED_UNIT(*) PLANE_ANGLE_UNIT() SI_UNIT($,.RADIAN.) );
#1477 = ( NAMED_UNIT(*) SI_UNIT($,.STERADIAN.) SOLID_ANGLE_UNIT() );
#1478 = UNCERTAINTY_MEASURE_WITH_UNIT(LENGTH_MEASURE(1.E-07),#1475,
  'distance_accuracy_value','confusion accuracy');
#1479 = PRODUCT_RELATED_PRODUCT_CATEGORY('part',$,(#7));
#1480 = MECHANICAL_DESIGN_GEOMETRIC_PRESENTATION_REPRESENTATION('',(
    #1481),#1474);
#1481 = STYLED_ITEM('color',(#1482),#15);
#1482 = PRESENTATION_STYLE_ASSIGNMENT((#1483,#1489));
#1483 = SURFACE_STYLE_USAGE(.BOTH.,#1484);
#1484 = SURFACE_SIDE_STYLE('',(#1485));
#1485 = SURFACE_STYLE_FILL_AREA(#1486);
#1486 = FILL_AREA_STYLE('',(#1487));
#1487 = FILL_AREA_STYLE_COLOUR('',#1488);
#1488 = COLOUR_RGB('',0.447058818107,0.474509808674,0.501960817233);
#1489 = CURVE_STYLE('',#1490,POSITIVE_LENGTH_MEASURE(0.1),#1491);
#1490 = DRAUGHTING_PRE_DEFINED_CURVE_FONT('continuous');
#1491 = COLOUR_RGB('',0.678431390124,0.709803936702,0.741176476869);
ENDSEC;
END-ISO-10303-21;
