ISO-10303-21;
HEADER;
FILE_DESCRIPTION(('FreeCAD Model'),'2;1');
FILE_NAME('Open CASCADE Shape Model','2026-06-23T12:32:02',(''),(''),
  'Open CASCADE STEP processor 7.9','FreeCAD','Unknown');
FILE_SCHEMA(('AUTOMOTIVE_DESIGN { 1 0 10303 214 1 1 1 1 }'));
ENDSEC;
DATA;
#1 = APPLICATION_PROTOCOL_DEFINITION('international standard',
  'automotive_design',2000,#2);
#2 = APPLICATION_CONTEXT(
  'core data for automotive mechanical design processes');
#3 = SHAPE_DEFINITION_REPRESENTATION(#4,#10);
#4 = PRODUCT_DEFINITION_SHAPE('','',#5);
#5 = PRODUCT_DEFINITION('design','',#6,#9);
#6 = PRODUCT_DEFINITION_FORMATION('','',#7);
#7 = PRODUCT('Tip','Tip','',(#8));
#8 = PRODUCT_CONTEXT('',#2,'mechanical');
#9 = PRODUCT_DEFINITION_CONTEXT('part definition',#2,'design');
#10 = ADVANCED_BREP_SHAPE_REPRESENTATION('',(#11,#15),#396);
#11 = AXIS2_PLACEMENT_3D('',#12,#13,#14);
#12 = CARTESIAN_POINT('',(0.,0.,0.));
#13 = DIRECTION('',(0.,0.,1.));
#14 = DIRECTION('',(1.,0.,-0.));
#15 = MANIFOLD_SOLID_BREP('',#16);
#16 = CLOSED_SHELL('',(#17,#43,#68,#88,#113,#138,#163,#183,#208,#233,
    #258,#283,#308,#328,#353,#378));
#17 = ADVANCED_FACE('',(#18),#38,.T.);
#18 = FACE_BOUND('',#19,.F.);
#19 = EDGE_LOOP('',(#20,#30,#37));
#20 = ORIENTED_EDGE('',*,*,#21,.T.);
#21 = EDGE_CURVE('',#22,#24,#26,.T.);
#22 = VERTEX_POINT('',#23);
#23 = CARTESIAN_POINT('',(49.5,0.,0.));
#24 = VERTEX_POINT('',#25);
#25 = CARTESIAN_POINT('',(48.1,0.,0.7));
#26 = LINE('',#27,#28);
#27 = CARTESIAN_POINT('',(49.5,0.,0.));
#28 = VECTOR('',#29,1.);
#29 = DIRECTION('',(-0.894427191,0.,0.4472135955));
#30 = ORIENTED_EDGE('',*,*,#31,.F.);
#31 = EDGE_CURVE('',#24,#24,#32,.T.);
#32 = CIRCLE('',#33,0.7);
#33 = AXIS2_PLACEMENT_3D('',#34,#35,#36);
#34 = CARTESIAN_POINT('',(48.1,0.,0.));
#35 = DIRECTION('',(1.,0.,-0.));
#36 = DIRECTION('',(0.,2.2E-16,1.));
#37 = ORIENTED_EDGE('',*,*,#21,.F.);
#38 = CONICAL_SURFACE('',#39,0.,0.463647609001);
#39 = AXIS2_PLACEMENT_3D('',#40,#41,#42);
#40 = CARTESIAN_POINT('',(49.5,0.,0.));
#41 = DIRECTION('',(-1.,-0.,-0.));
#42 = DIRECTION('',(-0.,2.2E-16,1.));
#43 = ADVANCED_FACE('',(#44),#63,.T.);
#44 = FACE_BOUND('',#45,.F.);
#45 = EDGE_LOOP('',(#46,#47,#55,#62));
#46 = ORIENTED_EDGE('',*,*,#31,.T.);
#47 = ORIENTED_EDGE('',*,*,#48,.T.);
#48 = EDGE_CURVE('',#24,#49,#51,.T.);
#49 = VERTEX_POINT('',#50);
#50 = CARTESIAN_POINT('',(41.5,0.,0.7));
#51 = LINE('',#52,#53);
#52 = CARTESIAN_POINT('',(48.1,0.,0.7));
#53 = VECTOR('',#54,1.);
#54 = DIRECTION('',(-1.,0.,0.));
#55 = ORIENTED_EDGE('',*,*,#56,.F.);
#56 = EDGE_CURVE('',#49,#49,#57,.T.);
#57 = CIRCLE('',#58,0.7);
#58 = AXIS2_PLACEMENT_3D('',#59,#60,#61);
#59 = CARTESIAN_POINT('',(41.5,0.,0.));
#60 = DIRECTION('',(1.,0.,-0.));
#61 = DIRECTION('',(0.,2.2E-16,1.));
#62 = ORIENTED_EDGE('',*,*,#48,.F.);
#63 = CYLINDRICAL_SURFACE('',#64,0.7);
#64 = AXIS2_PLACEMENT_3D('',#65,#66,#67);
#65 = CARTESIAN_POINT('',(48.1,0.,0.));
#66 = DIRECTION('',(-1.,-0.,-0.));
#67 = DIRECTION('',(-0.,2.2E-16,1.));
#68 = ADVANCED_FACE('',(#69,#72),#83,.T.);
#69 = FACE_BOUND('',#70,.F.);
#70 = EDGE_LOOP('',(#71));
#71 = ORIENTED_EDGE('',*,*,#56,.T.);
#72 = FACE_BOUND('',#73,.F.);
#73 = EDGE_LOOP('',(#74));
#74 = ORIENTED_EDGE('',*,*,#75,.F.);
#75 = EDGE_CURVE('',#76,#76,#78,.T.);
#76 = VERTEX_POINT('',#77);
#77 = CARTESIAN_POINT('',(41.5,0.,1.2));
#78 = CIRCLE('',#79,1.2);
#79 = AXIS2_PLACEMENT_3D('',#80,#81,#82);
#80 = CARTESIAN_POINT('',(41.5,0.,0.));
#81 = DIRECTION('',(1.,0.,-0.));
#82 = DIRECTION('',(0.,2.2E-16,1.));
#83 = PLANE('',#84);
#84 = AXIS2_PLACEMENT_3D('',#85,#86,#87);
#85 = CARTESIAN_POINT('',(41.5,0.,0.));
#86 = DIRECTION('',(1.,0.,0.));
#87 = DIRECTION('',(-0.,2.2E-16,1.));
#88 = ADVANCED_FACE('',(#89),#108,.T.);
#89 = FACE_BOUND('',#90,.F.);
#90 = EDGE_LOOP('',(#91,#92,#100,#107));
#91 = ORIENTED_EDGE('',*,*,#75,.T.);
#92 = ORIENTED_EDGE('',*,*,#93,.T.);
#93 = EDGE_CURVE('',#76,#94,#96,.T.);
#94 = VERTEX_POINT('',#95);
#95 = CARTESIAN_POINT('',(38.799999999999,0.,1.2));
#96 = LINE('',#97,#98);
#97 = CARTESIAN_POINT('',(41.5,0.,1.2));
#98 = VECTOR('',#99,1.);
#99 = DIRECTION('',(-1.,0.,0.));
#100 = ORIENTED_EDGE('',*,*,#101,.F.);
#101 = EDGE_CURVE('',#94,#94,#102,.T.);
#102 = CIRCLE('',#103,1.2);
#103 = AXIS2_PLACEMENT_3D('',#104,#105,#106);
#104 = CARTESIAN_POINT('',(38.799999999999,0.,0.));
#105 = DIRECTION('',(1.,0.,-0.));
#106 = DIRECTION('',(0.,2.2E-16,1.));
#107 = ORIENTED_EDGE('',*,*,#93,.F.);
#108 = CYLINDRICAL_SURFACE('',#109,1.2);
#109 = AXIS2_PLACEMENT_3D('',#110,#111,#112);
#110 = CARTESIAN_POINT('',(41.5,0.,0.));
#111 = DIRECTION('',(-1.,-0.,-0.));
#112 = DIRECTION('',(-0.,2.2E-16,1.));
#113 = ADVANCED_FACE('',(#114),#133,.T.);
#114 = FACE_BOUND('',#115,.F.);
#115 = EDGE_LOOP('',(#116,#117,#125,#132));
#116 = ORIENTED_EDGE('',*,*,#101,.T.);
#117 = ORIENTED_EDGE('',*,*,#118,.T.);
#118 = EDGE_CURVE('',#94,#119,#121,.T.);
#119 = VERTEX_POINT('',#120);
#120 = CARTESIAN_POINT('',(38.5,0.,1.5));
#121 = LINE('',#122,#123);
#122 = CARTESIAN_POINT('',(38.799999999999,0.,1.2));
#123 = VECTOR('',#124,1.);
#124 = DIRECTION('',(-0.707106781186,0.,0.707106781187));
#125 = ORIENTED_EDGE('',*,*,#126,.F.);
#126 = EDGE_CURVE('',#119,#119,#127,.T.);
#127 = CIRCLE('',#128,1.5);
#128 = AXIS2_PLACEMENT_3D('',#129,#130,#131);
#129 = CARTESIAN_POINT('',(38.5,0.,0.));
#130 = DIRECTION('',(1.,0.,-0.));
#131 = DIRECTION('',(0.,2.2E-16,1.));
#132 = ORIENTED_EDGE('',*,*,#118,.F.);
#133 = CONICAL_SURFACE('',#134,1.2,0.785398163398);
#134 = AXIS2_PLACEMENT_3D('',#135,#136,#137);
#135 = CARTESIAN_POINT('',(38.799999999999,0.,0.));
#136 = DIRECTION('',(-1.,-0.,-0.));
#137 = DIRECTION('',(-0.,2.2E-16,1.));
#138 = ADVANCED_FACE('',(#139),#158,.T.);
#139 = FACE_BOUND('',#140,.F.);
#140 = EDGE_LOOP('',(#141,#142,#150,#157));
#141 = ORIENTED_EDGE('',*,*,#126,.T.);
#142 = ORIENTED_EDGE('',*,*,#143,.T.);
#143 = EDGE_CURVE('',#119,#144,#146,.T.);
#144 = VERTEX_POINT('',#145);
#145 = CARTESIAN_POINT('',(29.,0.,1.5));
#146 = LINE('',#147,#148);
#147 = CARTESIAN_POINT('',(38.5,0.,1.5));
#148 = VECTOR('',#149,1.);
#149 = DIRECTION('',(-1.,0.,0.));
#150 = ORIENTED_EDGE('',*,*,#151,.F.);
#151 = EDGE_CURVE('',#144,#144,#152,.T.);
#152 = CIRCLE('',#153,1.5);
#153 = AXIS2_PLACEMENT_3D('',#154,#155,#156);
#154 = CARTESIAN_POINT('',(29.,0.,0.));
#155 = DIRECTION('',(1.,0.,-0.));
#156 = DIRECTION('',(0.,2.2E-16,1.));
#157 = ORIENTED_EDGE('',*,*,#143,.F.);
#158 = CYLINDRICAL_SURFACE('',#159,1.5);
#159 = AXIS2_PLACEMENT_3D('',#160,#161,#162);
#160 = CARTESIAN_POINT('',(38.5,0.,0.));
#161 = DIRECTION('',(-1.,-0.,-0.));
#162 = DIRECTION('',(-0.,2.2E-16,1.));
#163 = ADVANCED_FACE('',(#164,#167),#178,.T.);
#164 = FACE_BOUND('',#165,.F.);
#165 = EDGE_LOOP('',(#166));
#166 = ORIENTED_EDGE('',*,*,#151,.T.);
#167 = FACE_BOUND('',#168,.F.);
#168 = EDGE_LOOP('',(#169));
#169 = ORIENTED_EDGE('',*,*,#170,.F.);
#170 = EDGE_CURVE('',#171,#171,#173,.T.);
#171 = VERTEX_POINT('',#172);
#172 = CARTESIAN_POINT('',(29.,0.,2.));
#173 = CIRCLE('',#174,2.);
#174 = AXIS2_PLACEMENT_3D('',#175,#176,#177);
#175 = CARTESIAN_POINT('',(29.,0.,0.));
#176 = DIRECTION('',(1.,0.,-0.));
#177 = DIRECTION('',(0.,2.2E-16,1.));
#178 = PLANE('',#179);
#179 = AXIS2_PLACEMENT_3D('',#180,#181,#182);
#180 = CARTESIAN_POINT('',(29.,0.,0.));
#181 = DIRECTION('',(1.,0.,0.));
#182 = DIRECTION('',(-0.,2.2E-16,1.));
#183 = ADVANCED_FACE('',(#184),#203,.T.);
#184 = FACE_BOUND('',#185,.F.);
#185 = EDGE_LOOP('',(#186,#187,#195,#202));
#186 = ORIENTED_EDGE('',*,*,#170,.T.);
#187 = ORIENTED_EDGE('',*,*,#188,.T.);
#188 = EDGE_CURVE('',#171,#189,#191,.T.);
#189 = VERTEX_POINT('',#190);
#190 = CARTESIAN_POINT('',(25.65,0.,2.));
#191 = LINE('',#192,#193);
#192 = CARTESIAN_POINT('',(29.,0.,2.));
#193 = VECTOR('',#194,1.);
#194 = DIRECTION('',(-1.,0.,0.));
#195 = ORIENTED_EDGE('',*,*,#196,.F.);
#196 = EDGE_CURVE('',#189,#189,#197,.T.);
#197 = CIRCLE('',#198,2.);
#198 = AXIS2_PLACEMENT_3D('',#199,#200,#201);
#199 = CARTESIAN_POINT('',(25.65,0.,0.));
#200 = DIRECTION('',(1.,0.,-0.));
#201 = DIRECTION('',(0.,2.2E-16,1.));
#202 = ORIENTED_EDGE('',*,*,#188,.F.);
#203 = CYLINDRICAL_SURFACE('',#204,2.);
#204 = AXIS2_PLACEMENT_3D('',#205,#206,#207);
#205 = CARTESIAN_POINT('',(29.,0.,0.));
#206 = DIRECTION('',(-1.,-0.,-0.));
#207 = DIRECTION('',(-0.,2.2E-16,1.));
#208 = ADVANCED_FACE('',(#209),#228,.T.);
#209 = FACE_BOUND('',#210,.F.);
#210 = EDGE_LOOP('',(#211,#212,#220,#227));
#211 = ORIENTED_EDGE('',*,*,#196,.T.);
#212 = ORIENTED_EDGE('',*,*,#213,.T.);
#213 = EDGE_CURVE('',#189,#214,#216,.T.);
#214 = VERTEX_POINT('',#215);
#215 = CARTESIAN_POINT('',(25.4,0.,2.25));
#216 = LINE('',#217,#218);
#217 = CARTESIAN_POINT('',(25.65,0.,2.));
#218 = VECTOR('',#219,1.);
#219 = DIRECTION('',(-0.707106781187,0.,0.707106781187));
#220 = ORIENTED_EDGE('',*,*,#221,.F.);
#221 = EDGE_CURVE('',#214,#214,#222,.T.);
#222 = CIRCLE('',#223,2.25);
#223 = AXIS2_PLACEMENT_3D('',#224,#225,#226);
#224 = CARTESIAN_POINT('',(25.4,0.,0.));
#225 = DIRECTION('',(1.,0.,-0.));
#226 = DIRECTION('',(0.,2.2E-16,1.));
#227 = ORIENTED_EDGE('',*,*,#213,.F.);
#228 = CONICAL_SURFACE('',#229,2.,0.785398163397);
#229 = AXIS2_PLACEMENT_3D('',#230,#231,#232);
#230 = CARTESIAN_POINT('',(25.65,0.,0.));
#231 = DIRECTION('',(-1.,-0.,-0.));
#232 = DIRECTION('',(-0.,2.2E-16,1.));
#233 = ADVANCED_FACE('',(#234),#253,.T.);
#234 = FACE_BOUND('',#235,.F.);
#235 = EDGE_LOOP('',(#236,#237,#245,#252));
#236 = ORIENTED_EDGE('',*,*,#221,.T.);
#237 = ORIENTED_EDGE('',*,*,#238,.T.);
#238 = EDGE_CURVE('',#214,#239,#241,.T.);
#239 = VERTEX_POINT('',#240);
#240 = CARTESIAN_POINT('',(-5.5,0.,2.25));
#241 = LINE('',#242,#243);
#242 = CARTESIAN_POINT('',(25.4,0.,2.25));
#243 = VECTOR('',#244,1.);
#244 = DIRECTION('',(-1.,0.,0.));
#245 = ORIENTED_EDGE('',*,*,#246,.F.);
#246 = EDGE_CURVE('',#239,#239,#247,.T.);
#247 = CIRCLE('',#248,2.25);
#248 = AXIS2_PLACEMENT_3D('',#249,#250,#251);
#249 = CARTESIAN_POINT('',(-5.5,0.,0.));
#250 = DIRECTION('',(1.,0.,-0.));
#251 = DIRECTION('',(0.,2.2E-16,1.));
#252 = ORIENTED_EDGE('',*,*,#238,.F.);
#253 = CYLINDRICAL_SURFACE('',#254,2.25);
#254 = AXIS2_PLACEMENT_3D('',#255,#256,#257);
#255 = CARTESIAN_POINT('',(25.4,0.,0.));
#256 = DIRECTION('',(-1.,-0.,-0.));
#257 = DIRECTION('',(-0.,2.2E-16,1.));
#258 = ADVANCED_FACE('',(#259),#278,.T.);
#259 = FACE_BOUND('',#260,.F.);
#260 = EDGE_LOOP('',(#261,#262,#270,#277));
#261 = ORIENTED_EDGE('',*,*,#246,.T.);
#262 = ORIENTED_EDGE('',*,*,#263,.T.);
#263 = EDGE_CURVE('',#239,#264,#266,.T.);
#264 = VERTEX_POINT('',#265);
#265 = CARTESIAN_POINT('',(-8.5,0.,1.85));
#266 = LINE('',#267,#268);
#267 = CARTESIAN_POINT('',(-5.5,0.,2.25));
#268 = VECTOR('',#269,1.);
#269 = DIRECTION('',(-0.991227900683,-0.,-0.132163720091));
#270 = ORIENTED_EDGE('',*,*,#271,.F.);
#271 = EDGE_CURVE('',#264,#264,#272,.T.);
#272 = CIRCLE('',#273,1.85);
#273 = AXIS2_PLACEMENT_3D('',#274,#275,#276);
#274 = CARTESIAN_POINT('',(-8.5,0.,0.));
#275 = DIRECTION('',(1.,0.,-0.));
#276 = DIRECTION('',(0.,2.2E-16,1.));
#277 = ORIENTED_EDGE('',*,*,#263,.F.);
#278 = CONICAL_SURFACE('',#279,2.25,0.132551532297);
#279 = AXIS2_PLACEMENT_3D('',#280,#281,#282);
#280 = CARTESIAN_POINT('',(-5.5,0.,0.));
#281 = DIRECTION('',(1.,0.,0.));
#282 = DIRECTION('',(-0.,2.2E-16,1.));
#283 = ADVANCED_FACE('',(#284),#303,.T.);
#284 = FACE_BOUND('',#285,.F.);
#285 = EDGE_LOOP('',(#286,#287,#295,#302));
#286 = ORIENTED_EDGE('',*,*,#271,.T.);
#287 = ORIENTED_EDGE('',*,*,#288,.T.);
#288 = EDGE_CURVE('',#264,#289,#291,.T.);
#289 = VERTEX_POINT('',#290);
#290 = CARTESIAN_POINT('',(-23.5,0.,1.85));
#291 = LINE('',#292,#293);
#292 = CARTESIAN_POINT('',(-8.5,0.,1.85));
#293 = VECTOR('',#294,1.);
#294 = DIRECTION('',(-1.,0.,0.));
#295 = ORIENTED_EDGE('',*,*,#296,.F.);
#296 = EDGE_CURVE('',#289,#289,#297,.T.);
#297 = CIRCLE('',#298,1.85);
#298 = AXIS2_PLACEMENT_3D('',#299,#300,#301);
#299 = CARTESIAN_POINT('',(-23.5,0.,0.));
#300 = DIRECTION('',(1.,0.,-0.));
#301 = DIRECTION('',(0.,2.2E-16,1.));
#302 = ORIENTED_EDGE('',*,*,#288,.F.);
#303 = CYLINDRICAL_SURFACE('',#304,1.85);
#304 = AXIS2_PLACEMENT_3D('',#305,#306,#307);
#305 = CARTESIAN_POINT('',(-8.5,0.,0.));
#306 = DIRECTION('',(-1.,-0.,-0.));
#307 = DIRECTION('',(-0.,2.2E-16,1.));
#308 = ADVANCED_FACE('',(#309,#312),#323,.T.);
#309 = FACE_BOUND('',#310,.F.);
#310 = EDGE_LOOP('',(#311));
#311 = ORIENTED_EDGE('',*,*,#296,.T.);
#312 = FACE_BOUND('',#313,.F.);
#313 = EDGE_LOOP('',(#314));
#314 = ORIENTED_EDGE('',*,*,#315,.F.);
#315 = EDGE_CURVE('',#316,#316,#318,.T.);
#316 = VERTEX_POINT('',#317);
#317 = CARTESIAN_POINT('',(-23.5,0.,2.45));
#318 = CIRCLE('',#319,2.45);
#319 = AXIS2_PLACEMENT_3D('',#320,#321,#322);
#320 = CARTESIAN_POINT('',(-23.5,0.,0.));
#321 = DIRECTION('',(1.,0.,-0.));
#322 = DIRECTION('',(0.,2.2E-16,1.));
#323 = PLANE('',#324);
#324 = AXIS2_PLACEMENT_3D('',#325,#326,#327);
#325 = CARTESIAN_POINT('',(-23.5,0.,0.));
#326 = DIRECTION('',(1.,0.,0.));
#327 = DIRECTION('',(-0.,2.2E-16,1.));
#328 = ADVANCED_FACE('',(#329),#348,.T.);
#329 = FACE_BOUND('',#330,.F.);
#330 = EDGE_LOOP('',(#331,#332,#340,#347));
#331 = ORIENTED_EDGE('',*,*,#315,.T.);
#332 = ORIENTED_EDGE('',*,*,#333,.T.);
#333 = EDGE_CURVE('',#316,#334,#336,.T.);
#334 = VERTEX_POINT('',#335);
#335 = CARTESIAN_POINT('',(-38.5,0.,2.45));
#336 = LINE('',#337,#338);
#337 = CARTESIAN_POINT('',(-23.5,0.,2.45));
#338 = VECTOR('',#339,1.);
#339 = DIRECTION('',(-1.,0.,0.));
#340 = ORIENTED_EDGE('',*,*,#341,.F.);
#341 = EDGE_CURVE('',#334,#334,#342,.T.);
#342 = CIRCLE('',#343,2.45);
#343 = AXIS2_PLACEMENT_3D('',#344,#345,#346);
#344 = CARTESIAN_POINT('',(-38.5,0.,0.));
#345 = DIRECTION('',(1.,0.,-0.));
#346 = DIRECTION('',(0.,2.2E-16,1.));
#347 = ORIENTED_EDGE('',*,*,#333,.F.);
#348 = CYLINDRICAL_SURFACE('',#349,2.45);
#349 = AXIS2_PLACEMENT_3D('',#350,#351,#352);
#350 = CARTESIAN_POINT('',(-23.5,0.,0.));
#351 = DIRECTION('',(-1.,-0.,-0.));
#352 = DIRECTION('',(-0.,2.2E-16,1.));
#353 = ADVANCED_FACE('',(#354),#373,.T.);
#354 = FACE_BOUND('',#355,.F.);
#355 = EDGE_LOOP('',(#356,#357,#365,#372));
#356 = ORIENTED_EDGE('',*,*,#341,.T.);
#357 = ORIENTED_EDGE('',*,*,#358,.T.);
#358 = EDGE_CURVE('',#334,#359,#361,.T.);
#359 = VERTEX_POINT('',#360);
#360 = CARTESIAN_POINT('',(-41.5,0.,1.358089297201));
#361 = LINE('',#362,#363);
#362 = CARTESIAN_POINT('',(-38.5,0.,2.45));
#363 = VECTOR('',#364,1.);
#364 = DIRECTION('',(-0.939692620786,-0.,-0.342020143326));
#365 = ORIENTED_EDGE('',*,*,#366,.F.);
#366 = EDGE_CURVE('',#359,#359,#367,.T.);
#367 = CIRCLE('',#368,1.358089297201);
#368 = AXIS2_PLACEMENT_3D('',#369,#370,#371);
#369 = CARTESIAN_POINT('',(-41.5,0.,0.));
#370 = DIRECTION('',(1.,0.,-0.));
#371 = DIRECTION('',(0.,2.2E-16,1.));
#372 = ORIENTED_EDGE('',*,*,#358,.F.);
#373 = CONICAL_SURFACE('',#374,2.45,0.349065850399);
#374 = AXIS2_PLACEMENT_3D('',#375,#376,#377);
#375 = CARTESIAN_POINT('',(-38.5,0.,0.));
#376 = DIRECTION('',(1.,0.,0.));
#377 = DIRECTION('',(-0.,2.2E-16,1.));
#378 = ADVANCED_FACE('',(#379),#391,.T.);
#379 = FACE_BOUND('',#380,.F.);
#380 = EDGE_LOOP('',(#381,#382,#390));
#381 = ORIENTED_EDGE('',*,*,#366,.T.);
#382 = ORIENTED_EDGE('',*,*,#383,.T.);
#383 = EDGE_CURVE('',#359,#384,#386,.T.);
#384 = VERTEX_POINT('',#385);
#385 = CARTESIAN_POINT('',(-49.5,0.,0.));
#386 = LINE('',#387,#388);
#387 = CARTESIAN_POINT('',(-41.5,0.,1.358089297201));
#388 = VECTOR('',#389,1.);
#389 = DIRECTION('',(-0.985894725468,-0.,-0.167366634353));
#390 = ORIENTED_EDGE('',*,*,#383,.F.);
#391 = CONICAL_SURFACE('',#392,1.358089297201,0.168158018678);
#392 = AXIS2_PLACEMENT_3D('',#393,#394,#395);
#393 = CARTESIAN_POINT('',(-41.5,0.,0.));
#394 = DIRECTION('',(1.,0.,0.));
#395 = DIRECTION('',(-0.,2.2E-16,1.));
#396 = ( GEOMETRIC_REPRESENTATION_CONTEXT(3) 
GLOBAL_UNCERTAINTY_ASSIGNED_CONTEXT((#400)) GLOBAL_UNIT_ASSIGNED_CONTEXT
((#397,#398,#399)) REPRESENTATION_CONTEXT('Context #1',
  '3D Context with UNIT and UNCERTAINTY') );
#397 = ( LENGTH_UNIT() NAMED_UNIT(*) SI_UNIT(.MILLI.,.METRE.) );
#398 = ( NAMED_UNIT(*) PLANE_ANGLE_UNIT() SI_UNIT($,.RADIAN.) );
#399 = ( NAMED_UNIT(*) SI_UNIT($,.STERADIAN.) SOLID_ANGLE_UNIT() );
#400 = UNCERTAINTY_MEASURE_WITH_UNIT(LENGTH_MEASURE(1.E-07),#397,
  'distance_accuracy_value','confusion accuracy');
#401 = PRODUCT_RELATED_PRODUCT_CATEGORY('part',$,(#7));
#402 = MECHANICAL_DESIGN_GEOMETRIC_PRESENTATION_REPRESENTATION('',(#403)
  ,#396);
#403 = STYLED_ITEM('color',(#404),#15);
#404 = PRESENTATION_STYLE_ASSIGNMENT((#405,#411));
#405 = SURFACE_STYLE_USAGE(.BOTH.,#406);
#406 = SURFACE_SIDE_STYLE('',(#407));
#407 = SURFACE_STYLE_FILL_AREA(#408);
#408 = FILL_AREA_STYLE('',(#409));
#409 = FILL_AREA_STYLE_COLOUR('',#410);
#410 = COLOUR_RGB('',0.447058818107,0.474509808674,0.501960817233);
#411 = CURVE_STYLE('',#412,POSITIVE_LENGTH_MEASURE(0.1),#413);
#412 = DRAUGHTING_PRE_DEFINED_CURVE_FONT('continuous');
#413 = COLOUR_RGB('',0.678431390124,0.709803936702,0.741176476869);
ENDSEC;
END-ISO-10303-21;
